<svg xmlns="http://www.w3.org/2000/svg" viewBox="0 0 2424.94 1167.47"><defs><style>.cls-1{opacity:0.54;}.cls-2,.cls-5{fill:#d3d4d6;}.cls-3,.cls-4{fill:#f47f24;}.cls-3,.cls-5{stroke:#f47f24;stroke-miterlimit:10;stroke-dasharray:5.68;}.cls-3{stroke-width:0.85px;}.cls-5{stroke-width:0.28px;}</style></defs><title>cloud dartAsset 2logo white</title><g id="Layer_2" data-name="Layer 2"><g id="Layer_1-2" data-name="Layer 1"><g class="cls-1"><path class="cls-2" d="M77.18,173.56A35,35,0,0,1,112,212.74h8.71a15.48,15.48,0,0,1,15.48,15.48h0a15.48,15.48,0,0,1-15.48,15.48H33.64a15.48,15.48,0,0,1-15.48-15.48h0a15.48,15.48,0,0,1,15.48-15.48h8.71a35.08,35.08,0,0,1,34.83-39.18m0-6.12A41.15,41.15,0,0,0,36,206.62h-2.4a21.6,21.6,0,0,0-19.89,30,21.54,21.54,0,0,0,11.49,11.49,21.38,21.38,0,0,0,8.4,1.7h87.07a21.6,21.6,0,1,0,0-43.19h-2.4a41.15,41.15,0,0,0-41.13-39.18Z"/><path class="cls-2" d="M225,47.61A35.08,35.08,0,0,1,259.8,86.79h8.71A15.48,15.48,0,0,1,284,102.27h0a15.48,15.48,0,0,1-15.48,15.48H181.44A15.48,15.48,0,0,1,166,102.27h0a15.48,15.48,0,0,1,15.48-15.48h8.71A35.08,35.08,0,0,1,225,47.61m0-6.11a41.15,41.15,0,0,0-41.13,39.18h-2.4a21.6,21.6,0,1,0,0,43.19h87.07a21.52,21.52,0,0,0,15.27-6.33,21.59,21.59,0,0,0-15.27-36.86h-2.4A41.15,41.15,0,0,0,225,41.5Z"/><path class="cls-2" d="M369.38,173.56a35.08,35.08,0,0,1,34.83,39.18h8.71a15.48,15.48,0,0,1,15.48,15.48h0a15.48,15.48,0,0,1-15.48,15.48H325.85a15.48,15.48,0,0,1-15.48-15.48h0a15.48,15.48,0,0,1,15.48-15.48h8.71a35,35,0,0,1,34.82-39.18m0-6.12a41.15,41.15,0,0,0-41.13,39.18h-2.4a21.6,21.6,0,1,0,0,43.19h87.07a21.61,21.61,0,0,0,15.27-6.32,21.6,21.6,0,0,0,4.62-6.87,21.59,21.59,0,0,0-19.89-30h-2.4a40.84,40.84,0,0,0-3.19-14,41.16,41.16,0,0,0-37.95-25.15Z"/><line class="cls-3" x1="224.97" y1="147.18" x2="224.97" y2="206.19"/><rect class="cls-4" x="217.92" y="212.44" width="14.12" height="14.12" rx="2.24" transform="translate(221.1 -94.79) rotate(45)"/><line class="cls-3" x1="152.61" y1="219.49" x2="211.56" y2="219.49"/><line class="cls-3" x1="297.29" y1="219.5" x2="238.28" y2="219.5"/><line class="cls-3" x1="224.98" y1="291.87" x2="224.98" y2="232.91"/><path class="cls-2" d="M526.58,47.61a35.07,35.07,0,0,1,35.07,35.07,37.18,37.18,0,0,1-.24,4.11h8.7a15.48,15.48,0,0,1,15.48,15.48h0a15.48,15.48,0,0,1-15.48,15.48H483a15.48,15.48,0,0,1-15.48-15.48h0A15.48,15.48,0,0,1,483,86.79h8.71a35.08,35.08,0,0,1,34.83-39.18m0-6.11a41.15,41.15,0,0,0-41.14,39.18H483a21.38,21.38,0,0,0-8.4,1.7,21.6,21.6,0,0,0,8.4,41.49h87.07a21.6,21.6,0,1,0,0-43.19h-2.4A41.15,41.15,0,0,0,526.58,41.5Z"/><line class="cls-3" x1="526.58" y1="147.18" x2="526.58" y2="206.19"/><rect class="cls-4" x="519.52" y="212.44" width="14.12" height="14.12" rx="2.24" transform="translate(309.44 -308.06) rotate(45)"/><line class="cls-3" x1="454.21" y1="219.49" x2="513.17" y2="219.49"/><line class="cls-3" x1="598.89" y1="219.5" x2="539.88" y2="219.5"/><line class="cls-3" x1="526.58" y1="291.87" x2="526.58" y2="232.91"/><line class="cls-3" x1="372.16" x2="372.16" y2="59.01"/><rect class="cls-4" x="365.1" y="65.26" width="14.12" height="14.12" rx="2.24" transform="translate(160.14 -241.98) rotate(45)"/><line class="cls-3" x1="299.8" y1="72.31" x2="358.75" y2="72.31"/><line class="cls-3" x1="444.47" y1="72.32" x2="385.46" y2="72.32"/><line class="cls-3" x1="372.17" y1="144.68" x2="372.17" y2="85.73"/><line class="cls-3" x1="72.36" x2="72.36" y2="59.01"/><rect class="cls-4" x="65.31" y="65.26" width="14.12" height="14.12" rx="2.24" transform="translate(72.33 -29.99) rotate(45)"/><line class="cls-3" y1="72.31" x2="58.95" y2="72.31"/><line class="cls-3" x1="144.68" y1="72.32" x2="85.67" y2="72.32"/><line class="cls-3" x1="72.37" y1="144.68" x2="72.37" y2="85.73"/><path class="cls-2" d="M685.86,173.56a35.07,35.07,0,0,1,35.07,35.07,37.18,37.18,0,0,1-.24,4.11h8.7a15.48,15.48,0,0,1,15.48,15.48h0a15.48,15.48,0,0,1-15.48,15.48H642.32a15.48,15.48,0,0,1-15.47-15.48h0a15.48,15.48,0,0,1,15.47-15.48H651a35.08,35.08,0,0,1,34.83-39.18m0-6.12a41.1,41.1,0,0,0-29.12,12.06,41.32,41.32,0,0,0-8.83,13.09,40.84,40.84,0,0,0-3.19,14h-2.4a21.6,21.6,0,1,0,0,43.19h87.07a21.6,21.6,0,1,0,0-43.19H727a41.17,41.17,0,0,0-41.14-39.18Z"/><path class="cls-2" d="M833.66,47.61a35,35,0,0,1,34.82,39.18h8.71a15.48,15.48,0,0,1,15.48,15.48h0a15.48,15.48,0,0,1-15.48,15.48H790.12a15.48,15.48,0,0,1-15.48-15.48h0a15.48,15.48,0,0,1,15.48-15.48h8.71a35.08,35.08,0,0,1,34.83-39.18m0-6.11a41.15,41.15,0,0,0-41.14,39.18h-2.4a21.6,21.6,0,1,0,0,43.19h87.07a21.52,21.52,0,0,0,15.27-6.33,21.59,21.59,0,0,0-15.27-36.86h-2.4A41.15,41.15,0,0,0,833.66,41.5Z"/><path class="cls-2" d="M978.06,173.56a35.08,35.08,0,0,1,34.83,39.18h8.71a15.48,15.48,0,0,1,15.48,15.48h0a15.48,15.48,0,0,1-15.48,15.48H934.53a15.48,15.48,0,0,1-15.48-15.48h0a15.48,15.48,0,0,1,15.48-15.48h8.71a35.08,35.08,0,0,1,34.82-39.18m0-6.12a41.15,41.15,0,0,0-41.13,39.18h-2.4a21.6,21.6,0,1,0,0,43.19h87.07a21.6,21.6,0,1,0,0-43.19h-2.4a41.15,41.15,0,0,0-41.14-39.18Z"/><line class="cls-3" x1="833.66" y1="147.18" x2="833.66" y2="206.19"/><rect class="cls-4" x="826.6" y="212.44" width="14.12" height="14.12" rx="2.24" transform="translate(399.38 -525.2) rotate(45)"/><line class="cls-3" x1="761.29" y1="219.49" x2="820.25" y2="219.49"/><line class="cls-3" x1="905.97" y1="219.5" x2="846.96" y2="219.5"/><line class="cls-3" x1="833.66" y1="291.87" x2="833.66" y2="232.91"/><path class="cls-2" d="M1135.26,47.61a35.07,35.07,0,0,1,35.07,35.07,37.18,37.18,0,0,1-.24,4.11h8.7a15.48,15.48,0,0,1,15.48,15.48h0a15.48,15.48,0,0,1-15.48,15.48h-87.07a15.48,15.48,0,0,1-15.47-15.48h0a15.48,15.48,0,0,1,15.47-15.48h8.71a35.08,35.08,0,0,1,34.83-39.18m0-6.11a41.15,41.15,0,0,0-41.14,39.18h-2.4a21.6,21.6,0,1,0,0,43.19h87.07a21.6,21.6,0,1,0,0-43.19h-2.39a41.17,41.17,0,0,0-41.14-39.18Z"/><line class="cls-3" x1="1135.26" y1="147.18" x2="1135.26" y2="206.19"/><rect class="cls-4" x="1128.2" y="212.44" width="14.12" height="14.12" rx="2.24" transform="translate(487.72 -738.46) rotate(45)"/><line class="cls-3" x1="1062.9" y1="219.49" x2="1121.85" y2="219.49"/><line class="cls-3" x1="1207.57" y1="219.5" x2="1148.56" y2="219.5"/><line class="cls-3" x1="1135.27" y1="291.87" x2="1135.27" y2="232.91"/><line class="cls-3" x1="980.84" x2="980.84" y2="59.01"/><rect class="cls-4" x="973.78" y="65.26" width="14.12" height="14.12" rx="2.24" transform="translate(338.41 -672.38) rotate(45)"/><line class="cls-3" x1="908.48" y1="72.31" x2="967.43" y2="72.31"/><line class="cls-3" x1="1053.15" y1="72.32" x2="994.14" y2="72.32"/><line class="cls-3" x1="980.85" y1="144.68" x2="980.85" y2="85.73"/><line class="cls-3" x1="681.04" x2="681.04" y2="59.01"/><rect class="cls-4" x="673.99" y="65.26" width="14.12" height="14.12" rx="2.24" transform="translate(250.61 -460.39) rotate(45)"/><line class="cls-3" x1="608.68" y1="72.31" x2="667.63" y2="72.31"/><line class="cls-3" x1="753.36" y1="72.32" x2="694.35" y2="72.32"/><line class="cls-3" x1="681.05" y1="144.68" x2="681.05" y2="85.73"/><path class="cls-2" d="M1294.54,173.56a35.08,35.08,0,0,1,34.83,39.18h8.7a15.48,15.48,0,0,1,15.48,15.48h0a15.48,15.48,0,0,1-15.48,15.48H1251a15.48,15.48,0,0,1-15.48-15.48h0A15.48,15.48,0,0,1,1251,212.74h8.7a35.08,35.08,0,0,1,34.83-39.18m0-6.12a41.18,41.18,0,0,0-41.14,39.18H1251a21.6,21.6,0,1,0,0,43.19h87.06a21.56,21.56,0,0,0,15.27-6.32,21.63,21.63,0,0,0,4.63-6.87,21.59,21.59,0,0,0-19.9-30h-2.39a40.84,40.84,0,0,0-3.19-14,41.32,41.32,0,0,0-21.92-21.91,40.89,40.89,0,0,0-16-3.24Z"/><path class="cls-2" d="M1442.34,47.61a35.07,35.07,0,0,1,35.07,35.07,37.18,37.18,0,0,1-.24,4.11h8.7a15.48,15.48,0,0,1,15.48,15.48h0a15.48,15.48,0,0,1-15.48,15.48H1398.8a15.48,15.48,0,0,1-15.47-15.48h0a15.48,15.48,0,0,1,15.47-15.48h8.71a35.08,35.08,0,0,1,34.83-39.18m0-6.11a41.15,41.15,0,0,0-41.14,39.18h-2.4a21.6,21.6,0,1,0,0,43.19h87.07a21.6,21.6,0,1,0,0-43.19h-2.4a41.15,41.15,0,0,0-41.13-39.18Z"/><path class="cls-2" d="M1586.75,173.56a35,35,0,0,1,34.82,39.18h8.71a15.48,15.48,0,0,1,15.48,15.48h0a15.48,15.48,0,0,1-15.48,15.48h-87.07a15.48,15.48,0,0,1-15.48-15.48h0a15.48,15.48,0,0,1,15.48-15.48h8.71a35.08,35.08,0,0,1,34.83-39.18m0-6.12a41.15,41.15,0,0,0-41.14,39.18h-2.4a21.6,21.6,0,0,0-19.89,30,21.54,21.54,0,0,0,11.49,11.49,21.38,21.38,0,0,0,8.4,1.7h87.07a21.6,21.6,0,1,0,0-43.19h-2.4a41.15,41.15,0,0,0-41.13-39.18Z"/><line class="cls-3" x1="1442.34" y1="147.18" x2="1442.34" y2="206.19"/><rect class="cls-4" x="1435.28" y="212.44" width="14.12" height="14.12" rx="2.24" transform="translate(577.66 -955.6) rotate(45)"/><line class="cls-3" x1="1369.98" y1="219.49" x2="1428.93" y2="219.49"/><line class="cls-3" x1="1514.65" y1="219.5" x2="1455.64" y2="219.5"/><line class="cls-3" x1="1442.35" y1="291.87" x2="1442.35" y2="232.91"/><path class="cls-2" d="M1743.94,47.61a35.08,35.08,0,0,1,34.83,39.18h8.71A15.48,15.48,0,0,1,1803,102.27h0a15.48,15.48,0,0,1-15.47,15.48h-87.07a15.48,15.48,0,0,1-15.48-15.48h0a15.48,15.48,0,0,1,15.48-15.48h8.7a37.18,37.18,0,0,1-.24-4.11,35.07,35.07,0,0,1,35.07-35.07m0-6.11a41.18,41.18,0,0,0-41.14,39.18h-2.39a21.6,21.6,0,1,0,0,43.19h87.07a21.6,21.6,0,1,0,0-43.19h-2.4a41.17,41.17,0,0,0-41.14-39.18Z"/><line class="cls-3" x1="1743.94" y1="147.18" x2="1743.94" y2="206.19"/><rect class="cls-4" x="1736.88" y="212.44" width="14.12" height="14.12" rx="2.24" transform="translate(666 -1168.86) rotate(45)"/><line class="cls-3" x1="1671.58" y1="219.49" x2="1730.53" y2="219.49"/><line class="cls-3" x1="1816.26" y1="219.5" x2="1757.24" y2="219.5"/><line class="cls-3" x1="1743.95" y1="291.87" x2="1743.95" y2="232.91"/><line class="cls-3" x1="1589.52" x2="1589.52" y2="59.01"/><rect class="cls-4" x="1582.46" y="65.26" width="14.12" height="14.12" rx="2.24" transform="translate(516.69 -1102.78) rotate(45)"/><line class="cls-3" x1="1517.16" y1="72.31" x2="1576.11" y2="72.31"/><line class="cls-3" x1="1661.84" y1="72.32" x2="1602.83" y2="72.32"/><line class="cls-3" x1="1589.53" y1="144.68" x2="1589.53" y2="85.73"/><line class="cls-3" x1="1289.73" x2="1289.73" y2="59.01"/><rect class="cls-4" x="1282.67" y="65.26" width="14.12" height="14.12" rx="2.24" transform="translate(428.89 -890.79) rotate(45)"/><line class="cls-3" x1="1217.36" y1="72.31" x2="1276.32" y2="72.31"/><line class="cls-3" x1="1362.04" y1="72.32" x2="1303.03" y2="72.32"/><line class="cls-3" x1="1289.73" y1="144.68" x2="1289.73" y2="85.73"/><path class="cls-2" d="M1903.22,173.56a35.08,35.08,0,0,1,34.83,39.18h8.71a15.48,15.48,0,0,1,15.48,15.48h0a15.48,15.48,0,0,1-15.48,15.48h-87.07a15.48,15.48,0,0,1-15.48-15.48h0a15.48,15.48,0,0,1,15.48-15.48h8.7a37.18,37.18,0,0,1-.24-4.11,35.07,35.07,0,0,1,35.07-35.07m0-6.12a41.15,41.15,0,0,0-41.13,39.18h-2.4a21.6,21.6,0,1,0,0,43.19h87.07a21.38,21.38,0,0,0,8.4-1.7,21.54,21.54,0,0,0,11.49-11.49A21.59,21.59,0,0,0,1962,213a21.63,21.63,0,0,0-6.87-4.63,21.38,21.38,0,0,0-8.4-1.7h-2.4a40.84,40.84,0,0,0-3.19-14,41.32,41.32,0,0,0-21.92-21.91,40.89,40.89,0,0,0-16-3.24Z"/><path class="cls-2" d="M2051,47.61a35.08,35.08,0,0,1,34.83,39.18h8.7A15.48,15.48,0,0,1,2110,102.27h0a15.48,15.48,0,0,1-15.48,15.48h-87.06A15.48,15.48,0,0,1,1992,102.27h0a15.48,15.48,0,0,1,15.48-15.48h8.7A35.08,35.08,0,0,1,2051,47.61m0-6.11a41.18,41.18,0,0,0-41.14,39.18h-2.39a21.6,21.6,0,1,0,0,43.19h87.06a21.6,21.6,0,1,0,0-43.19h-2.39A41.17,41.17,0,0,0,2051,41.5Z"/><path class="cls-2" d="M2195.43,173.56a35.07,35.07,0,0,1,35.07,35.07,37.18,37.18,0,0,1-.24,4.11h8.7a15.48,15.48,0,0,1,15.48,15.48h0A15.48,15.48,0,0,1,2239,243.7h-87.07a15.48,15.48,0,0,1-15.47-15.48h0a15.48,15.48,0,0,1,15.47-15.48h8.71a35.08,35.08,0,0,1,34.83-39.18m0-6.12a41.1,41.1,0,0,0-29.12,12.06,41.32,41.32,0,0,0-8.83,13.09,40.84,40.84,0,0,0-3.19,14h-2.4a21.6,21.6,0,1,0,0,43.19H2239a21.6,21.6,0,1,0,0-43.19h-2.4a41.15,41.15,0,0,0-41.13-39.18Z"/><line class="cls-3" x1="2051.02" y1="147.18" x2="2051.02" y2="206.19"/><rect class="cls-4" x="2043.96" y="212.44" width="14.12" height="14.12" rx="2.24" transform="translate(755.94 -1386) rotate(45)"/><line class="cls-3" x1="1978.66" y1="219.49" x2="2037.61" y2="219.49"/><line class="cls-3" x1="2123.33" y1="219.5" x2="2064.32" y2="219.5"/><line class="cls-3" x1="2051.03" y1="291.87" x2="2051.03" y2="232.91"/><path class="cls-2" d="M2352.62,47.61a35.08,35.08,0,0,1,34.83,39.18h8.71a15.48,15.48,0,0,1,15.48,15.48h0a15.48,15.48,0,0,1-15.48,15.48h-87.07a15.48,15.48,0,0,1-15.48-15.48h0a15.48,15.48,0,0,1,15.48-15.48h8.7a37.18,37.18,0,0,1-.24-4.11,35.07,35.07,0,0,1,35.07-35.07m0-6.11a41.15,41.15,0,0,0-41.13,39.18h-2.4a21.6,21.6,0,1,0,0,43.19h87.07a21.6,21.6,0,1,0,0-43.19h-2.4a41.15,41.15,0,0,0-41.14-39.18Z"/><line class="cls-3" x1="2352.62" y1="147.18" x2="2352.62" y2="206.19"/><rect class="cls-4" x="2345.56" y="212.44" width="14.12" height="14.12" rx="2.24" transform="translate(844.27 -1599.27) rotate(45)"/><line class="cls-3" x1="2280.26" y1="219.49" x2="2339.21" y2="219.49"/><line class="cls-3" x1="2424.94" y1="219.5" x2="2365.93" y2="219.5"/><line class="cls-3" x1="2352.63" y1="291.87" x2="2352.63" y2="232.91"/><line class="cls-3" x1="2198.2" x2="2198.2" y2="59.01"/><rect class="cls-4" x="2191.15" y="65.26" width="14.12" height="14.12" rx="2.24" transform="translate(694.97 -1533.18) rotate(45)"/><line class="cls-3" x1="2125.84" y1="72.31" x2="2184.79" y2="72.31"/><line class="cls-3" x1="2270.52" y1="72.32" x2="2211.51" y2="72.32"/><line class="cls-3" x1="2198.21" y1="144.68" x2="2198.21" y2="85.73"/><line class="cls-3" x1="1898.41" x2="1898.41" y2="59.01"/><rect class="cls-4" x="1891.35" y="65.26" width="14.12" height="14.12" rx="2.24" transform="translate(607.16 -1321.2) rotate(45)"/><line class="cls-3" x1="1826.05" y1="72.31" x2="1885" y2="72.31"/><line class="cls-3" x1="1970.72" y1="72.32" x2="1911.71" y2="72.32"/><line class="cls-3" x1="1898.42" y1="144.68" x2="1898.42" y2="85.73"/><path class="cls-2" d="M77.18,465.42A35,35,0,0,1,112,504.6h8.71a15.48,15.48,0,0,1,15.48,15.48h0a15.48,15.48,0,0,1-15.48,15.48H33.64a15.48,15.48,0,0,1-15.48-15.48h0A15.48,15.48,0,0,1,33.64,504.6h8.71a35.08,35.08,0,0,1,34.83-39.18m0-6.11A41.15,41.15,0,0,0,36,498.49h-2.4a21.61,21.61,0,0,0-15.27,6.32,21.6,21.6,0,0,0-4.62,6.87,21.59,21.59,0,0,0,19.89,30h87.07a21.6,21.6,0,1,0,0-43.19h-2.4a41.15,41.15,0,0,0-41.13-39.18Z"/><path class="cls-2" d="M225,339.48a35.08,35.08,0,0,1,34.83,39.18h8.71A15.48,15.48,0,0,1,284,394.14h0a15.48,15.48,0,0,1-15.48,15.48H181.44A15.48,15.48,0,0,1,166,394.14h0a15.48,15.48,0,0,1,15.48-15.48h8.71A35.08,35.08,0,0,1,225,339.48m0-6.12a41.16,41.16,0,0,0-41.13,39.19h-2.4a21.45,21.45,0,0,0-15.27,6.32,21.59,21.59,0,0,0,15.27,36.86h87.07a21.59,21.59,0,1,0,0-43.18h-2.4a41.08,41.08,0,0,0-12-27.12A41.06,41.06,0,0,0,225,333.36Z"/><path class="cls-2" d="M369.38,465.42a35.08,35.08,0,0,1,34.83,39.18h8.71a15.48,15.48,0,0,1,15.48,15.48h0a15.48,15.48,0,0,1-15.48,15.48H325.85a15.48,15.48,0,0,1-15.48-15.48h0a15.48,15.48,0,0,1,15.48-15.48h8.71a35,35,0,0,1,34.82-39.18m0-6.11a41.15,41.15,0,0,0-41.13,39.18h-2.4a21.6,21.6,0,1,0,0,43.19h87.07a21.6,21.6,0,0,0,19.89-30,21.54,21.54,0,0,0-11.49-11.49,21.38,21.38,0,0,0-8.4-1.7h-2.4a41.15,41.15,0,0,0-41.14-39.18Z"/><line class="cls-3" x1="224.97" y1="439.05" x2="224.97" y2="498.06"/><rect class="cls-4" x="217.92" y="504.31" width="14.12" height="14.12" rx="2.24" transform="translate(427.48 -9.31) rotate(45)"/><line class="cls-3" x1="152.61" y1="511.36" x2="211.56" y2="511.36"/><line class="cls-3" x1="297.29" y1="511.37" x2="238.28" y2="511.37"/><line class="cls-3" x1="224.98" y1="583.73" x2="224.98" y2="524.78"/><path class="cls-2" d="M526.58,339.48a35.07,35.07,0,0,1,35.07,35.07,37.18,37.18,0,0,1-.24,4.11h8.7a15.48,15.48,0,0,1,15.48,15.48h0a15.48,15.48,0,0,1-15.48,15.48H483a15.48,15.48,0,0,1-15.48-15.48h0A15.48,15.48,0,0,1,483,378.66h8.71a35.08,35.08,0,0,1,34.83-39.18m0-6.12a41.16,41.16,0,0,0-41.14,39.19H483a21.59,21.59,0,1,0,0,43.18h87.07a21.59,21.59,0,1,0,0-43.18h-2.4a41.08,41.08,0,0,0-12-27.12,41.06,41.06,0,0,0-29.12-12.07Z"/><line class="cls-3" x1="526.58" y1="439.05" x2="526.58" y2="498.06"/><rect class="cls-4" x="519.52" y="504.31" width="14.12" height="14.12" rx="2.24" transform="translate(515.82 -222.57) rotate(45)"/><line class="cls-3" x1="454.21" y1="511.36" x2="513.17" y2="511.36"/><line class="cls-3" x1="598.89" y1="511.37" x2="539.88" y2="511.37"/><line class="cls-3" x1="526.58" y1="583.73" x2="526.58" y2="524.78"/><line class="cls-3" x1="372.16" y1="291.87" x2="372.16" y2="350.88"/><rect class="cls-4" x="365.1" y="357.12" width="14.12" height="14.12" rx="2.24" transform="translate(366.52 -156.49) rotate(45)"/><line class="cls-3" x1="299.8" y1="364.17" x2="358.75" y2="364.17"/><line class="cls-3" x1="444.47" y1="364.19" x2="385.46" y2="364.19"/><line class="cls-3" x1="372.17" y1="436.55" x2="372.17" y2="377.6"/><line class="cls-3" x1="72.36" y1="291.87" x2="72.36" y2="350.88"/><rect class="cls-4" x="65.31" y="357.12" width="14.12" height="14.12" rx="2.24" transform="translate(278.71 55.5) rotate(45)"/><line class="cls-3" y1="364.17" x2="58.95" y2="364.17"/><line class="cls-3" x1="144.68" y1="364.19" x2="85.67" y2="364.19"/><line class="cls-3" x1="72.37" y1="436.55" x2="72.37" y2="377.6"/><path class="cls-2" d="M685.86,465.42a35.07,35.07,0,0,1,35.07,35.07,37,37,0,0,1-.24,4.11h8.7a15.48,15.48,0,0,1,15.48,15.48h0a15.48,15.48,0,0,1-15.48,15.48H642.32a15.48,15.48,0,0,1-15.47-15.48h0a15.48,15.48,0,0,1,15.47-15.48H651a35.08,35.08,0,0,1,34.83-39.18m0-6.11a41.15,41.15,0,0,0-41.14,39.18h-2.4a21.6,21.6,0,1,0,0,43.19h87.07a21.6,21.6,0,1,0,0-43.19H727a41.17,41.17,0,0,0-41.14-39.18Z"/><path class="cls-2" d="M833.66,339.48a35,35,0,0,1,34.82,39.18h8.71a15.48,15.48,0,0,1,15.48,15.48h0a15.48,15.48,0,0,1-15.48,15.48H790.12a15.48,15.48,0,0,1-15.48-15.48h0a15.48,15.48,0,0,1,15.48-15.48h8.71a35.08,35.08,0,0,1,34.83-39.18m0-6.12a41.16,41.16,0,0,0-41.14,39.19h-2.4a21.59,21.59,0,0,0-15.27,36.86,21.61,21.61,0,0,0,15.27,6.32h87.07a21.59,21.59,0,1,0,0-43.18h-2.4a41.08,41.08,0,0,0-12-27.12,41.06,41.06,0,0,0-29.12-12.07Z"/><path class="cls-2" d="M978.06,465.42a35.08,35.08,0,0,1,34.83,39.18h8.71a15.48,15.48,0,0,1,15.48,15.48h0a15.48,15.48,0,0,1-15.48,15.48H934.53a15.48,15.48,0,0,1-15.48-15.48h0a15.48,15.48,0,0,1,15.48-15.48h8.71a35.08,35.08,0,0,1,34.82-39.18m0-6.11a41.15,41.15,0,0,0-41.13,39.18h-2.4a21.6,21.6,0,1,0,0,43.19h87.07a21.6,21.6,0,1,0,0-43.19h-2.4a41.15,41.15,0,0,0-41.14-39.18Z"/><line class="cls-3" x1="833.66" y1="439.05" x2="833.66" y2="498.06"/><rect class="cls-4" x="826.6" y="504.31" width="14.12" height="14.12" rx="2.24" transform="translate(605.76 -439.71) rotate(45)"/><line class="cls-3" x1="761.29" y1="511.36" x2="820.25" y2="511.36"/><line class="cls-3" x1="905.97" y1="511.37" x2="846.96" y2="511.37"/><line class="cls-3" x1="833.66" y1="583.73" x2="833.66" y2="524.78"/><path class="cls-2" d="M1135.26,339.48a35.07,35.07,0,0,1,35.07,35.07,37.18,37.18,0,0,1-.24,4.11h8.7a15.48,15.48,0,0,1,15.48,15.48h0a15.48,15.48,0,0,1-15.48,15.48h-87.07a15.48,15.48,0,0,1-15.47-15.48h0a15.48,15.48,0,0,1,15.47-15.48h8.71a35.08,35.08,0,0,1,34.83-39.18m0-6.12a41.16,41.16,0,0,0-41.14,39.19h-2.4a21.59,21.59,0,1,0,0,43.18h87.07a21.59,21.59,0,1,0,0-43.18h-2.39a41.17,41.17,0,0,0-41.14-39.19Z"/><line class="cls-3" x1="1135.26" y1="439.05" x2="1135.26" y2="498.06"/><rect class="cls-4" x="1128.2" y="504.31" width="14.12" height="14.12" rx="2.24" transform="translate(694.1 -652.97) rotate(45)"/><line class="cls-3" x1="1062.9" y1="511.36" x2="1121.85" y2="511.36"/><line class="cls-3" x1="1207.57" y1="511.37" x2="1148.56" y2="511.37"/><line class="cls-3" x1="1135.27" y1="583.73" x2="1135.27" y2="524.78"/><line class="cls-3" x1="980.84" y1="291.87" x2="980.84" y2="350.88"/><rect class="cls-4" x="973.78" y="357.12" width="14.12" height="14.12" rx="2.24" transform="translate(544.8 -586.89) rotate(45)"/><line class="cls-3" x1="908.48" y1="364.17" x2="967.43" y2="364.17"/><line class="cls-3" x1="1053.15" y1="364.19" x2="994.14" y2="364.19"/><line class="cls-3" x1="980.85" y1="436.55" x2="980.85" y2="377.6"/><line class="cls-3" x1="681.04" y1="291.87" x2="681.04" y2="350.88"/><rect class="cls-4" x="673.99" y="357.12" width="14.12" height="14.12" rx="2.24" transform="translate(456.99 -374.91) rotate(45)"/><line class="cls-3" x1="608.68" y1="364.17" x2="667.63" y2="364.17"/><line class="cls-3" x1="753.36" y1="364.19" x2="694.35" y2="364.19"/><line class="cls-3" x1="681.05" y1="436.55" x2="681.05" y2="377.6"/><path class="cls-2" d="M1294.54,465.42a35.08,35.08,0,0,1,34.83,39.18h8.7a15.48,15.48,0,0,1,15.48,15.48h0a15.48,15.48,0,0,1-15.48,15.48H1251a15.48,15.48,0,0,1-15.48-15.48h0A15.48,15.48,0,0,1,1251,504.6h8.7a35.08,35.08,0,0,1,34.83-39.18m0-6.11a41.18,41.18,0,0,0-41.14,39.18H1251a21.6,21.6,0,1,0,0,43.19h87.06a21.6,21.6,0,0,0,19.9-30,21.63,21.63,0,0,0-11.49-11.49,21.39,21.39,0,0,0-8.41-1.7h-2.39a41.17,41.17,0,0,0-41.14-39.18Z"/><path class="cls-2" d="M1442.34,339.48a35.07,35.07,0,0,1,35.07,35.07,37.18,37.18,0,0,1-.24,4.11h8.7a15.48,15.48,0,0,1,15.48,15.48h0a15.48,15.48,0,0,1-15.48,15.48H1398.8a15.48,15.48,0,0,1-15.47-15.48h0a15.48,15.48,0,0,1,15.47-15.48h8.71a35.08,35.08,0,0,1,34.83-39.18m0-6.12a41.16,41.16,0,0,0-41.14,39.19h-2.4a21.59,21.59,0,1,0,0,43.18h87.07a21.62,21.62,0,0,0,19.9-13.18,21.57,21.57,0,0,0-19.9-30h-2.4a41.15,41.15,0,0,0-41.13-39.19Z"/><path class="cls-5" d="M1586.75,465.42a35,35,0,0,1,34.82,39.18h8.71a15.48,15.48,0,0,1,15.48,15.48h0a15.48,15.48,0,0,1-15.48,15.48h-87.07a15.48,15.48,0,0,1-15.48-15.48h0a15.48,15.48,0,0,1,15.48-15.48h8.71a35.08,35.08,0,0,1,34.83-39.18m0-6.11a41.15,41.15,0,0,0-41.14,39.18h-2.4a21.61,21.61,0,0,0-15.27,6.32,21.6,21.6,0,0,0-4.62,6.87,21.59,21.59,0,0,0,19.89,30h87.07a21.6,21.6,0,1,0,0-43.19h-2.4a41.15,41.15,0,0,0-41.13-39.18Z"/><line class="cls-3" x1="1442.34" y1="439.05" x2="1442.34" y2="498.06"/><rect class="cls-4" x="1435.28" y="504.31" width="14.12" height="14.12" rx="2.24" transform="translate(784.04 -870.11) rotate(45)"/><line class="cls-3" x1="1369.98" y1="511.36" x2="1428.93" y2="511.36"/><line class="cls-3" x1="1514.65" y1="511.37" x2="1455.64" y2="511.37"/><line class="cls-3" x1="1442.35" y1="583.73" x2="1442.35" y2="524.78"/><path class="cls-2" d="M1743.94,339.48a35.08,35.08,0,0,1,34.83,39.18h8.71A15.48,15.48,0,0,1,1803,394.14h0a15.48,15.48,0,0,1-15.47,15.48h-87.07a15.48,15.48,0,0,1-15.48-15.48h0a15.48,15.48,0,0,1,15.48-15.48h8.7a37.18,37.18,0,0,1-.24-4.11,35.07,35.07,0,0,1,35.07-35.07m0-6.12a41.19,41.19,0,0,0-41.14,39.19h-2.39a21.59,21.59,0,1,0,0,43.18h87.07a21.59,21.59,0,1,0,0-43.18h-2.4a41.17,41.17,0,0,0-41.14-39.19Z"/><line class="cls-3" x1="1743.94" y1="439.05" x2="1743.94" y2="498.06"/><rect class="cls-4" x="1736.88" y="504.31" width="14.12" height="14.12" rx="2.24" transform="translate(872.38 -1083.38) rotate(45)"/><line class="cls-3" x1="1671.58" y1="511.36" x2="1730.53" y2="511.36"/><line class="cls-3" x1="1816.26" y1="511.37" x2="1757.24" y2="511.37"/><line class="cls-3" x1="1743.95" y1="583.73" x2="1743.95" y2="524.78"/><line class="cls-3" x1="1589.52" y1="291.87" x2="1589.52" y2="350.88"/><rect class="cls-4" x="1582.46" y="357.12" width="14.12" height="14.12" rx="2.24" transform="translate(723.07 -1017.3) rotate(45)"/><line class="cls-3" x1="1517.16" y1="364.17" x2="1576.11" y2="364.17"/><line class="cls-3" x1="1661.84" y1="364.19" x2="1602.83" y2="364.19"/><line class="cls-3" x1="1589.53" y1="436.55" x2="1589.53" y2="377.6"/><line class="cls-3" x1="1289.73" y1="291.87" x2="1289.73" y2="350.88"/><rect class="cls-4" x="1282.67" y="357.12" width="14.12" height="14.12" rx="2.24" transform="translate(635.27 -805.31) rotate(45)"/><line class="cls-3" x1="1217.36" y1="364.17" x2="1276.32" y2="364.17"/><line class="cls-3" x1="1362.04" y1="364.19" x2="1303.03" y2="364.19"/><line class="cls-3" x1="1289.73" y1="436.55" x2="1289.73" y2="377.6"/><path class="cls-2" d="M1903.22,465.42a35.08,35.08,0,0,1,34.83,39.18h8.71a15.48,15.48,0,0,1,15.48,15.48h0a15.48,15.48,0,0,1-15.48,15.48h-87.07a15.48,15.48,0,0,1-15.48-15.48h0a15.48,15.48,0,0,1,15.48-15.48h8.7a37,37,0,0,1-.24-4.11,35.07,35.07,0,0,1,35.07-35.07m0-6.11a41.15,41.15,0,0,0-41.13,39.18h-2.4a21.6,21.6,0,1,0,0,43.19h87.07a21.38,21.38,0,0,0,8.4-1.7,21.59,21.59,0,0,0,13.19-19.9,21.38,21.38,0,0,0-1.7-8.4,21.54,21.54,0,0,0-11.49-11.49,21.38,21.38,0,0,0-8.4-1.7h-2.4a41.17,41.17,0,0,0-41.14-39.18Z"/><path class="cls-2" d="M2051,339.48a35.08,35.08,0,0,1,34.83,39.18h8.7A15.48,15.48,0,0,1,2110,394.14h0a15.48,15.48,0,0,1-15.48,15.48h-87.06A15.48,15.48,0,0,1,1992,394.14h0a15.48,15.48,0,0,1,15.48-15.48h8.7A35.08,35.08,0,0,1,2051,339.48m0-6.12a41.19,41.19,0,0,0-41.14,39.19h-2.39a21.59,21.59,0,1,0,0,43.18h87.06a21.59,21.59,0,1,0,0-43.18h-2.39A41.17,41.17,0,0,0,2051,333.36Z"/><path class="cls-2" d="M2195.43,465.42a35.07,35.07,0,0,1,35.07,35.07,37,37,0,0,1-.24,4.11h8.7a15.48,15.48,0,0,1,15.48,15.48h0A15.48,15.48,0,0,1,2239,535.56h-87.07a15.48,15.48,0,0,1-15.47-15.48h0a15.48,15.48,0,0,1,15.47-15.48h8.71a35.08,35.08,0,0,1,34.83-39.18m0-6.11a41.15,41.15,0,0,0-41.14,39.18h-2.4a21.6,21.6,0,1,0,0,43.19H2239a21.6,21.6,0,1,0,0-43.19h-2.4a41.15,41.15,0,0,0-41.13-39.18Z"/><line class="cls-3" x1="2051.02" y1="439.05" x2="2051.02" y2="498.06"/><rect class="cls-4" x="2043.96" y="504.31" width="14.12" height="14.12" rx="2.24" transform="translate(962.32 -1300.52) rotate(45)"/><line class="cls-3" x1="1978.66" y1="511.36" x2="2037.61" y2="511.36"/><line class="cls-3" x1="2123.33" y1="511.37" x2="2064.32" y2="511.37"/><line class="cls-3" x1="2051.03" y1="583.73" x2="2051.03" y2="524.78"/><path class="cls-2" d="M2352.62,339.48a35.08,35.08,0,0,1,34.83,39.18h8.71a15.48,15.48,0,0,1,15.48,15.48h0a15.48,15.48,0,0,1-15.48,15.48h-87.07a15.48,15.48,0,0,1-15.48-15.48h0a15.48,15.48,0,0,1,15.48-15.48h8.7a37.18,37.18,0,0,1-.24-4.11,35.07,35.07,0,0,1,35.07-35.07m0-6.12a41.16,41.16,0,0,0-41.13,39.19h-2.4a21.58,21.58,0,0,0-15.27,36.86,21.56,21.56,0,0,0,15.27,6.32h87.07a21.59,21.59,0,0,0,15.27-36.86,21.5,21.5,0,0,0-15.27-6.32h-2.4a41,41,0,0,0-12-27.12,41,41,0,0,0-29.12-12.07Z"/><line class="cls-3" x1="2352.62" y1="439.05" x2="2352.62" y2="498.06"/><rect class="cls-4" x="2345.56" y="504.31" width="14.12" height="14.12" rx="2.24" transform="translate(1050.66 -1513.78) rotate(45)"/><line class="cls-3" x1="2280.26" y1="511.36" x2="2339.21" y2="511.36"/><line class="cls-3" x1="2424.94" y1="511.37" x2="2365.93" y2="511.37"/><line class="cls-3" x1="2352.63" y1="583.73" x2="2352.63" y2="524.78"/><line class="cls-3" x1="2198.2" y1="291.87" x2="2198.2" y2="350.88"/><rect class="cls-4" x="2191.15" y="357.12" width="14.12" height="14.12" rx="2.24" transform="translate(901.35 -1447.7) rotate(45)"/><line class="cls-3" x1="2125.84" y1="364.17" x2="2184.79" y2="364.17"/><line class="cls-3" x1="2270.52" y1="364.19" x2="2211.51" y2="364.19"/><line class="cls-3" x1="2198.21" y1="436.55" x2="2198.21" y2="377.6"/><line class="cls-3" x1="1898.41" y1="291.87" x2="1898.41" y2="350.88"/><rect class="cls-4" x="1891.35" y="357.12" width="14.12" height="14.12" rx="2.24" transform="translate(813.55 -1235.71) rotate(45)"/><line class="cls-3" x1="1826.05" y1="364.17" x2="1885" y2="364.17"/><line class="cls-3" x1="1970.72" y1="364.19" x2="1911.71" y2="364.19"/><line class="cls-3" x1="1898.42" y1="436.55" x2="1898.42" y2="377.6"/><path class="cls-2" d="M77.18,757.29A35,35,0,0,1,112,796.47h8.71A15.48,15.48,0,0,1,136.19,812h0a15.48,15.48,0,0,1-15.48,15.48H33.64A15.48,15.48,0,0,1,18.16,812h0a15.48,15.48,0,0,1,15.48-15.48h8.71a35.08,35.08,0,0,1,34.83-39.18m0-6.11A41.15,41.15,0,0,0,36,790.36h-2.4a21.59,21.59,0,1,0,0,43.18h87.07a21.59,21.59,0,1,0,0-43.18h-2.4a41.15,41.15,0,0,0-41.13-39.18Z"/><path class="cls-2" d="M225,631.35a35.08,35.08,0,0,1,34.83,39.18h8.71A15.48,15.48,0,0,1,284,686h0a15.48,15.48,0,0,1-15.48,15.47H181.44A15.48,15.48,0,0,1,166,686h0a15.48,15.48,0,0,1,15.48-15.48h8.71A35.08,35.08,0,0,1,225,631.35m0-6.12a41.15,41.15,0,0,0-41.13,39.18h-2.4a21.6,21.6,0,1,0,0,43.19h87.07a21.6,21.6,0,1,0,0-43.19h-2.4A41.15,41.15,0,0,0,225,625.23Z"/><path class="cls-2" d="M369.38,757.29a35.08,35.08,0,0,1,34.83,39.18h8.71A15.48,15.48,0,0,1,428.4,812h0a15.48,15.48,0,0,1-15.48,15.48H325.85A15.48,15.48,0,0,1,310.37,812h0a15.48,15.48,0,0,1,15.48-15.48h8.71a35,35,0,0,1,34.82-39.18m0-6.11a41.15,41.15,0,0,0-41.13,39.18h-2.4a21.59,21.59,0,1,0,0,43.18h87.07a21.59,21.59,0,1,0,0-43.18h-2.4a41.15,41.15,0,0,0-41.14-39.18Z"/><line class="cls-3" x1="224.97" y1="730.92" x2="224.97" y2="789.93"/><rect class="cls-4" x="217.92" y="796.17" width="14.12" height="14.12" rx="2.24" transform="translate(633.86 76.18) rotate(45)"/><line class="cls-3" x1="152.61" y1="803.22" x2="211.56" y2="803.22"/><line class="cls-3" x1="297.29" y1="803.24" x2="238.28" y2="803.24"/><line class="cls-3" x1="224.98" y1="875.6" x2="224.98" y2="816.65"/><path class="cls-2" d="M526.58,631.35a35.07,35.07,0,0,1,35.07,35.07,37.18,37.18,0,0,1-.24,4.11h8.7A15.48,15.48,0,0,1,585.59,686h0a15.48,15.48,0,0,1-15.48,15.47H483A15.48,15.48,0,0,1,467.56,686h0A15.48,15.48,0,0,1,483,670.53h8.71a35.08,35.08,0,0,1,34.83-39.18m0-6.12a41.15,41.15,0,0,0-41.14,39.18H483a21.38,21.38,0,0,0-8.4,1.7,21.63,21.63,0,0,0-11.49,11.49,21.59,21.59,0,0,0,19.89,30h87.07a21.6,21.6,0,1,0,0-43.19h-2.4a41.15,41.15,0,0,0-41.13-39.18Z"/><line class="cls-3" x1="526.58" y1="730.92" x2="526.58" y2="789.93"/><rect class="cls-4" x="519.52" y="796.17" width="14.12" height="14.12" rx="2.24" transform="translate(722.2 -137.09) rotate(45)"/><line class="cls-3" x1="454.21" y1="803.22" x2="513.17" y2="803.22"/><line class="cls-3" x1="598.89" y1="803.24" x2="539.88" y2="803.24"/><line class="cls-3" x1="526.58" y1="875.6" x2="526.58" y2="816.65"/><line class="cls-3" x1="372.16" y1="583.73" x2="372.16" y2="642.75"/><rect class="cls-4" x="365.1" y="648.99" width="14.12" height="14.12" rx="2.24" transform="translate(572.9 -71) rotate(45)"/><line class="cls-3" x1="299.8" y1="656.04" x2="358.75" y2="656.04"/><line class="cls-3" x1="444.47" y1="656.05" x2="385.46" y2="656.05"/><line class="cls-3" x1="372.17" y1="728.42" x2="372.17" y2="669.47"/><line class="cls-3" x1="72.36" y1="583.73" x2="72.36" y2="642.75"/><rect class="cls-4" x="65.31" y="648.99" width="14.12" height="14.12" rx="2.24" transform="translate(485.09 140.98) rotate(45)"/><line class="cls-3" y1="656.04" x2="58.95" y2="656.04"/><line class="cls-3" x1="144.68" y1="656.05" x2="85.67" y2="656.05"/><line class="cls-3" x1="72.37" y1="728.42" x2="72.37" y2="669.47"/><path class="cls-2" d="M685.86,757.29a35.07,35.07,0,0,1,35.07,35.07,37.18,37.18,0,0,1-.24,4.11h8.7A15.48,15.48,0,0,1,744.87,812h0a15.48,15.48,0,0,1-15.48,15.48H642.32A15.48,15.48,0,0,1,626.85,812h0a15.48,15.48,0,0,1,15.47-15.48H651a35.08,35.08,0,0,1,34.83-39.18m0-6.11a41.15,41.15,0,0,0-41.14,39.18h-2.4a21.59,21.59,0,1,0,0,43.18h87.07a21.62,21.62,0,0,0,19.9-13.18,21.57,21.57,0,0,0-4.63-23.68,21.56,21.56,0,0,0-15.27-6.32H727a41.17,41.17,0,0,0-41.14-39.18Z"/><path class="cls-2" d="M833.66,631.35a35,35,0,0,1,34.82,39.18h8.71A15.48,15.48,0,0,1,892.67,686h0a15.48,15.48,0,0,1-15.48,15.47H790.12A15.48,15.48,0,0,1,774.64,686h0a15.48,15.48,0,0,1,15.48-15.48h8.71a35.08,35.08,0,0,1,34.83-39.18m0-6.12a41.15,41.15,0,0,0-41.14,39.18h-2.4a21.6,21.6,0,1,0,0,43.19h87.07a21.6,21.6,0,1,0,0-43.19h-2.4a41.15,41.15,0,0,0-41.13-39.18Z"/><path class="cls-2" d="M978.06,757.29a35.08,35.08,0,0,1,34.83,39.18h8.71A15.48,15.48,0,0,1,1037.08,812h0a15.48,15.48,0,0,1-15.48,15.48H934.53A15.48,15.48,0,0,1,919.05,812h0a15.48,15.48,0,0,1,15.48-15.48h8.71a35.08,35.08,0,0,1,34.82-39.18m0-6.11a41.15,41.15,0,0,0-41.13,39.18h-2.4a21.59,21.59,0,1,0,0,43.18h87.07a21.59,21.59,0,1,0,0-43.18h-2.4a41.15,41.15,0,0,0-41.14-39.18Z"/><line class="cls-3" x1="833.66" y1="730.92" x2="833.66" y2="789.93"/><rect class="cls-4" x="826.6" y="796.17" width="14.12" height="14.12" rx="2.24" transform="translate(812.14 -354.22) rotate(45)"/><line class="cls-3" x1="761.29" y1="803.22" x2="820.25" y2="803.22"/><line class="cls-3" x1="905.97" y1="803.24" x2="846.96" y2="803.24"/><line class="cls-3" x1="833.66" y1="875.6" x2="833.66" y2="816.65"/><path class="cls-2" d="M1135.26,631.35a35.07,35.07,0,0,1,35.07,35.07,37.18,37.18,0,0,1-.24,4.11h8.7A15.48,15.48,0,0,1,1194.27,686h0a15.48,15.48,0,0,1-15.48,15.47h-87.07A15.47,15.47,0,0,1,1076.25,686h0a15.48,15.48,0,0,1,15.47-15.48h8.71a35.08,35.08,0,0,1,34.83-39.18m0-6.12a41.15,41.15,0,0,0-41.14,39.18h-2.4a21.6,21.6,0,1,0,0,43.19h87.07a21.6,21.6,0,1,0,0-43.19h-2.39a41.17,41.17,0,0,0-41.14-39.18Z"/><line class="cls-3" x1="1135.26" y1="730.92" x2="1135.26" y2="789.93"/><rect class="cls-4" x="1128.2" y="796.17" width="14.12" height="14.12" rx="2.24" transform="translate(900.48 -567.49) rotate(45)"/><line class="cls-3" x1="1062.9" y1="803.22" x2="1121.85" y2="803.22"/><line class="cls-3" x1="1207.57" y1="803.24" x2="1148.56" y2="803.24"/><line class="cls-3" x1="1135.27" y1="875.6" x2="1135.27" y2="816.65"/><line class="cls-3" x1="980.84" y1="583.73" x2="980.84" y2="642.75"/><rect class="cls-4" x="973.78" y="648.99" width="14.12" height="14.12" rx="2.24" transform="translate(751.18 -501.41) rotate(45)"/><line class="cls-3" x1="908.48" y1="656.04" x2="967.43" y2="656.04"/><line class="cls-3" x1="1053.15" y1="656.05" x2="994.14" y2="656.05"/><line class="cls-3" x1="980.85" y1="728.42" x2="980.85" y2="669.47"/><line class="cls-3" x1="681.04" y1="583.73" x2="681.04" y2="642.75"/><rect class="cls-4" x="673.99" y="648.99" width="14.12" height="14.12" rx="2.24" transform="translate(663.37 -289.42) rotate(45)"/><line class="cls-3" x1="608.68" y1="656.04" x2="667.63" y2="656.04"/><line class="cls-3" x1="753.36" y1="656.05" x2="694.35" y2="656.05"/><line class="cls-3" x1="681.05" y1="728.42" x2="681.05" y2="669.47"/><path class="cls-2" d="M1294.54,757.29a35.08,35.08,0,0,1,34.83,39.18h8.7A15.48,15.48,0,0,1,1353.55,812h0a15.48,15.48,0,0,1-15.48,15.48H1251A15.48,15.48,0,0,1,1235.53,812h0A15.48,15.48,0,0,1,1251,796.47h8.7a35.08,35.08,0,0,1,34.83-39.18m0-6.11a41.18,41.18,0,0,0-41.14,39.18H1251a21.59,21.59,0,1,0,0,43.18h87.06a21.59,21.59,0,1,0,0-43.18h-2.39a41.17,41.17,0,0,0-41.14-39.18Z"/><path class="cls-2" d="M1442.34,631.35a35.07,35.07,0,0,1,35.07,35.07,37.18,37.18,0,0,1-.24,4.11h8.7A15.48,15.48,0,0,1,1501.35,686h0a15.48,15.48,0,0,1-15.48,15.47H1398.8A15.47,15.47,0,0,1,1383.33,686h0a15.48,15.48,0,0,1,15.47-15.48h8.71a35.08,35.08,0,0,1,34.83-39.18m0-6.12a41.15,41.15,0,0,0-41.14,39.18h-2.4a21.6,21.6,0,1,0,0,43.19h87.07a21.6,21.6,0,1,0,0-43.19h-2.4a41.15,41.15,0,0,0-41.13-39.18Z"/><path class="cls-2" d="M1586.75,757.29a35,35,0,0,1,34.82,39.18h8.71A15.48,15.48,0,0,1,1645.76,812h0a15.48,15.48,0,0,1-15.48,15.48h-87.07A15.48,15.48,0,0,1,1527.73,812h0a15.48,15.48,0,0,1,15.48-15.48h8.71a35.08,35.08,0,0,1,34.83-39.18m0-6.11a41.15,41.15,0,0,0-41.14,39.18h-2.4a21.59,21.59,0,1,0,0,43.18h87.07a21.59,21.59,0,1,0,0-43.18h-2.4a41.15,41.15,0,0,0-41.13-39.18Z"/><line class="cls-3" x1="1442.34" y1="730.92" x2="1442.34" y2="789.93"/><rect class="cls-4" x="1435.28" y="796.17" width="14.12" height="14.12" rx="2.24" transform="translate(990.42 -784.63) rotate(45)"/><line class="cls-3" x1="1369.98" y1="803.22" x2="1428.93" y2="803.22"/><line class="cls-3" x1="1514.65" y1="803.24" x2="1455.64" y2="803.24"/><line class="cls-3" x1="1442.35" y1="875.6" x2="1442.35" y2="816.65"/><path class="cls-2" d="M1743.94,631.35a35.08,35.08,0,0,1,34.83,39.18h8.71A15.48,15.48,0,0,1,1803,686h0a15.47,15.47,0,0,1-15.47,15.47h-87.07A15.48,15.48,0,0,1,1684.93,686h0a15.48,15.48,0,0,1,15.48-15.48h8.7a37.18,37.18,0,0,1-.24-4.11,35.07,35.07,0,0,1,35.07-35.07m0-6.12a41.18,41.18,0,0,0-41.14,39.18h-2.39a21.6,21.6,0,1,0,0,43.19h87.07a21.6,21.6,0,1,0,0-43.19h-2.4a41.17,41.17,0,0,0-41.14-39.18Z"/><line class="cls-3" x1="1743.94" y1="730.92" x2="1743.94" y2="789.93"/><rect class="cls-4" x="1736.88" y="796.17" width="14.12" height="14.12" rx="2.24" transform="translate(1078.76 -997.89) rotate(45)"/><line class="cls-3" x1="1671.58" y1="803.22" x2="1730.53" y2="803.22"/><line class="cls-3" x1="1816.26" y1="803.24" x2="1757.24" y2="803.24"/><line class="cls-3" x1="1743.95" y1="875.6" x2="1743.95" y2="816.65"/><line class="cls-3" x1="1589.52" y1="583.73" x2="1589.52" y2="642.75"/><rect class="cls-4" x="1582.46" y="648.99" width="14.12" height="14.12" rx="2.24" transform="translate(929.46 -931.81) rotate(45)"/><line class="cls-3" x1="1517.16" y1="656.04" x2="1576.11" y2="656.04"/><line class="cls-3" x1="1661.84" y1="656.05" x2="1602.83" y2="656.05"/><line class="cls-3" x1="1589.53" y1="728.42" x2="1589.53" y2="669.47"/><line class="cls-3" x1="1289.73" y1="583.73" x2="1289.73" y2="642.75"/><rect class="cls-4" x="1282.67" y="648.99" width="14.12" height="14.12" rx="2.24" transform="translate(841.65 -719.82) rotate(45)"/><line class="cls-3" x1="1217.36" y1="656.04" x2="1276.32" y2="656.04"/><line class="cls-3" x1="1362.04" y1="656.05" x2="1303.03" y2="656.05"/><line class="cls-3" x1="1289.73" y1="728.42" x2="1289.73" y2="669.47"/><path class="cls-2" d="M1903.22,757.29a35.08,35.08,0,0,1,34.83,39.18h8.71A15.48,15.48,0,0,1,1962.24,812h0a15.48,15.48,0,0,1-15.48,15.48h-87.07A15.48,15.48,0,0,1,1844.21,812h0a15.48,15.48,0,0,1,15.48-15.48h8.7a37.18,37.18,0,0,1-.24-4.11,35.07,35.07,0,0,1,35.07-35.07m0-6.11a41.15,41.15,0,0,0-41.13,39.18h-2.4a21.59,21.59,0,1,0,0,43.18h87.07a21.59,21.59,0,1,0,0-43.18h-2.4a41.17,41.17,0,0,0-41.14-39.18Z"/><path class="cls-2" d="M2051,631.35a35.08,35.08,0,0,1,34.83,39.18h8.7A15.48,15.48,0,0,1,2110,686h0a15.48,15.48,0,0,1-15.48,15.47h-87.06A15.48,15.48,0,0,1,1992,686h0a15.48,15.48,0,0,1,15.48-15.48h8.7A35.08,35.08,0,0,1,2051,631.35m0-6.12a41.18,41.18,0,0,0-41.14,39.18h-2.39a21.6,21.6,0,1,0,0,43.19h87.06a21.6,21.6,0,1,0,0-43.19h-2.39A41.17,41.17,0,0,0,2051,625.23Z"/><path class="cls-2" d="M2195.43,757.29a35.07,35.07,0,0,1,35.07,35.07,37.18,37.18,0,0,1-.24,4.11h8.7A15.48,15.48,0,0,1,2254.44,812h0A15.48,15.48,0,0,1,2239,827.43h-87.07A15.48,15.48,0,0,1,2136.42,812h0a15.48,15.48,0,0,1,15.47-15.48h8.71a35.08,35.08,0,0,1,34.83-39.18m0-6.11a41.15,41.15,0,0,0-41.14,39.18h-2.4a21.59,21.59,0,1,0,0,43.18H2239a21.62,21.62,0,0,0,19.9-13.18,21.57,21.57,0,0,0-4.63-23.68,21.56,21.56,0,0,0-15.27-6.32h-2.4a41.15,41.15,0,0,0-41.13-39.18Z"/><line class="cls-3" x1="2051.02" y1="730.92" x2="2051.02" y2="789.93"/><rect class="cls-4" x="2043.96" y="796.17" width="14.12" height="14.12" rx="2.24" transform="translate(1168.7 -1215.03) rotate(45)"/><line class="cls-3" x1="1978.66" y1="803.22" x2="2037.61" y2="803.22"/><line class="cls-3" x1="2123.33" y1="803.24" x2="2064.32" y2="803.24"/><line class="cls-3" x1="2051.03" y1="875.6" x2="2051.03" y2="816.65"/><path class="cls-2" d="M2352.62,631.35a35.08,35.08,0,0,1,34.83,39.18h8.71A15.48,15.48,0,0,1,2411.64,686h0a15.48,15.48,0,0,1-15.48,15.47h-87.07A15.48,15.48,0,0,1,2293.61,686h0a15.48,15.48,0,0,1,15.48-15.48h8.7a37.18,37.18,0,0,1-.24-4.11,35.07,35.07,0,0,1,35.07-35.07m0-6.12a41.15,41.15,0,0,0-41.13,39.18h-2.4a21.6,21.6,0,1,0,0,43.19h87.07a21.59,21.59,0,0,0,15.27-36.86,21.63,21.63,0,0,0-6.87-4.63,21.38,21.38,0,0,0-8.4-1.7h-2.4a41.15,41.15,0,0,0-41.14-39.18Z"/><line class="cls-3" x1="2352.62" y1="730.92" x2="2352.62" y2="789.93"/><rect class="cls-4" x="2345.56" y="796.17" width="14.12" height="14.12" rx="2.24" transform="translate(1257.04 -1428.29) rotate(45)"/><line class="cls-3" x1="2280.26" y1="803.22" x2="2339.21" y2="803.22"/><line class="cls-3" x1="2424.94" y1="803.24" x2="2365.93" y2="803.24"/><line class="cls-3" x1="2352.63" y1="875.6" x2="2352.63" y2="816.65"/><line class="cls-3" x1="2198.2" y1="583.73" x2="2198.2" y2="642.75"/><rect class="cls-4" x="2191.15" y="648.99" width="14.12" height="14.12" rx="2.24" transform="translate(1107.73 -1362.21) rotate(45)"/><line class="cls-3" x1="2125.84" y1="656.04" x2="2184.79" y2="656.04"/><line class="cls-3" x1="2270.52" y1="656.05" x2="2211.51" y2="656.05"/><line class="cls-3" x1="2198.21" y1="728.42" x2="2198.21" y2="669.47"/><line class="cls-3" x1="1898.41" y1="583.73" x2="1898.41" y2="642.75"/><rect class="cls-4" x="1891.35" y="648.99" width="14.12" height="14.12" rx="2.24" transform="translate(1019.93 -1150.23) rotate(45)"/><line class="cls-3" x1="1826.05" y1="656.04" x2="1885" y2="656.04"/><line class="cls-3" x1="1970.72" y1="656.05" x2="1911.71" y2="656.05"/><line class="cls-3" x1="1898.42" y1="728.42" x2="1898.42" y2="669.47"/><path class="cls-2" d="M77.18,1049.16A35,35,0,0,1,112,1088.34h8.71a15.48,15.48,0,0,1,15.48,15.48h0a15.48,15.48,0,0,1-15.48,15.48H33.64a15.48,15.48,0,0,1-15.48-15.48h0a15.48,15.48,0,0,1,15.48-15.48h8.71a35.08,35.08,0,0,1,34.83-39.18m0-6.12A41.15,41.15,0,0,0,36,1082.22h-2.4a21.6,21.6,0,1,0,0,43.19h87.07a21.6,21.6,0,1,0,0-43.19h-2.4A41.15,41.15,0,0,0,77.18,1043Z"/><path class="cls-2" d="M225,923.21a35.08,35.08,0,0,1,34.83,39.18h8.71A15.48,15.48,0,0,1,284,977.87h0a15.48,15.48,0,0,1-15.48,15.48H181.44A15.48,15.48,0,0,1,166,977.87h0a15.48,15.48,0,0,1,15.48-15.48h8.71A35.08,35.08,0,0,1,225,923.21m0-6.11a41.15,41.15,0,0,0-41.13,39.18h-2.4a21.6,21.6,0,1,0,0,43.19h87.07a21.52,21.52,0,0,0,15.27-6.33,21.59,21.59,0,0,0-15.27-36.86h-2.4A41.15,41.15,0,0,0,225,917.1Z"/><path class="cls-2" d="M369.38,1049.16a35.08,35.08,0,0,1,34.83,39.18h8.71a15.48,15.48,0,0,1,15.48,15.48h0a15.48,15.48,0,0,1-15.48,15.48H325.85a15.48,15.48,0,0,1-15.48-15.48h0a15.48,15.48,0,0,1,15.48-15.48h8.71a35,35,0,0,1,34.82-39.18m0-6.12a41.15,41.15,0,0,0-41.13,39.18h-2.4a21.6,21.6,0,1,0,0,43.19h87.07a21.6,21.6,0,1,0,0-43.19h-2.4A41.15,41.15,0,0,0,369.38,1043Z"/><line class="cls-3" x1="224.97" y1="1022.78" x2="224.97" y2="1081.8"/><rect class="cls-4" x="217.92" y="1088.04" width="14.12" height="14.12" rx="2.24" transform="translate(840.24 161.67) rotate(45)"/><line class="cls-3" x1="152.61" y1="1095.09" x2="211.56" y2="1095.09"/><line class="cls-3" x1="297.29" y1="1095.1" x2="238.28" y2="1095.1"/><line class="cls-3" x1="224.98" y1="1167.47" x2="224.98" y2="1108.52"/><path class="cls-2" d="M526.58,923.21a35.07,35.07,0,0,1,35.07,35.07,37,37,0,0,1-.24,4.11h8.7a15.48,15.48,0,0,1,15.48,15.48h0a15.48,15.48,0,0,1-15.48,15.48H483a15.48,15.48,0,0,1-15.48-15.48h0A15.48,15.48,0,0,1,483,962.39h8.71a35.08,35.08,0,0,1,34.83-39.18m0-6.11a41.15,41.15,0,0,0-41.14,39.18H483a21.38,21.38,0,0,0-8.4,1.7,21.54,21.54,0,0,0-11.49,11.49,21.59,21.59,0,0,0,4.62,23.67A21.56,21.56,0,0,0,483,999.47h87.07a21.6,21.6,0,1,0,0-43.19h-2.4a41.15,41.15,0,0,0-41.13-39.18Z"/><line class="cls-3" x1="526.58" y1="1022.78" x2="526.58" y2="1081.8"/><rect class="cls-4" x="519.52" y="1088.04" width="14.12" height="14.12" rx="2.24" transform="translate(928.58 -51.6) rotate(45)"/><line class="cls-3" x1="454.21" y1="1095.09" x2="513.17" y2="1095.09"/><line class="cls-3" x1="598.89" y1="1095.1" x2="539.88" y2="1095.1"/><line class="cls-3" x1="526.58" y1="1167.47" x2="526.58" y2="1108.52"/><line class="cls-3" x1="372.16" y1="875.6" x2="372.16" y2="934.61"/><rect class="cls-4" x="365.1" y="940.86" width="14.12" height="14.12" rx="2.24" transform="translate(779.28 14.48) rotate(45)"/><line class="cls-3" x1="299.8" y1="947.91" x2="358.75" y2="947.91"/><line class="cls-3" x1="444.47" y1="947.92" x2="385.46" y2="947.92"/><line class="cls-3" x1="372.17" y1="1020.28" x2="372.17" y2="961.33"/><line class="cls-3" x1="72.36" y1="875.6" x2="72.36" y2="934.61"/><rect class="cls-4" x="65.31" y="940.86" width="14.12" height="14.12" rx="2.24" transform="translate(691.47 226.47) rotate(45)"/><line class="cls-3" y1="947.91" x2="58.95" y2="947.91"/><line class="cls-3" x1="144.68" y1="947.92" x2="85.67" y2="947.92"/><line class="cls-3" x1="72.37" y1="1020.28" x2="72.37" y2="961.33"/><path class="cls-2" d="M685.86,1049.16a35.07,35.07,0,0,1,35.07,35.07,37.18,37.18,0,0,1-.24,4.11h8.7a15.48,15.48,0,0,1,15.48,15.48h0a15.48,15.48,0,0,1-15.48,15.48H642.32a15.48,15.48,0,0,1-15.47-15.48h0a15.48,15.48,0,0,1,15.47-15.48H651a35.08,35.08,0,0,1,34.83-39.18m0-6.12a41.15,41.15,0,0,0-41.14,39.18h-2.4a21.6,21.6,0,1,0,0,43.19h87.07a21.59,21.59,0,0,0,21.6-21.59,21.59,21.59,0,0,0-21.6-21.6H727A41.17,41.17,0,0,0,685.86,1043Z"/><path class="cls-2" d="M833.66,923.21a35,35,0,0,1,34.82,39.18h8.71a15.48,15.48,0,0,1,15.48,15.48h0a15.48,15.48,0,0,1-15.48,15.48H790.12a15.48,15.48,0,0,1-15.48-15.48h0a15.48,15.48,0,0,1,15.48-15.48h8.71a35.08,35.08,0,0,1,34.83-39.18m0-6.11a41.15,41.15,0,0,0-41.14,39.18h-2.4a21.6,21.6,0,1,0,0,43.19h87.07a21.52,21.52,0,0,0,15.27-6.33,21.59,21.59,0,0,0-15.27-36.86h-2.4a41.15,41.15,0,0,0-41.13-39.18Z"/><path class="cls-2" d="M978.06,1049.16a35.08,35.08,0,0,1,34.83,39.18h8.71a15.48,15.48,0,0,1,15.48,15.48h0a15.48,15.48,0,0,1-15.48,15.48H934.53a15.48,15.48,0,0,1-15.48-15.48h0a15.48,15.48,0,0,1,15.48-15.48h8.71a35.08,35.08,0,0,1,34.82-39.18m0-6.12a41.15,41.15,0,0,0-41.13,39.18h-2.4a21.52,21.52,0,0,0-15.27,6.33,21.59,21.59,0,0,0,15.27,36.86h87.07a21.6,21.6,0,1,0,0-43.19h-2.4A41.15,41.15,0,0,0,978.06,1043Z"/><line class="cls-3" x1="833.66" y1="1022.78" x2="833.66" y2="1081.8"/><rect class="cls-4" x="826.6" y="1088.04" width="14.12" height="14.12" rx="2.24" transform="translate(1018.52 -268.74) rotate(45)"/><line class="cls-3" x1="761.29" y1="1095.09" x2="820.25" y2="1095.09"/><line class="cls-3" x1="905.97" y1="1095.1" x2="846.96" y2="1095.1"/><line class="cls-3" x1="833.66" y1="1167.47" x2="833.66" y2="1108.52"/><path class="cls-2" d="M1135.26,923.21a35.07,35.07,0,0,1,35.07,35.07,37,37,0,0,1-.24,4.11h8.7a15.48,15.48,0,0,1,15.48,15.48h0a15.48,15.48,0,0,1-15.48,15.48h-87.07a15.48,15.48,0,0,1-15.47-15.48h0a15.48,15.48,0,0,1,15.47-15.48h8.71a35.08,35.08,0,0,1,34.83-39.18m0-6.11a41.15,41.15,0,0,0-41.14,39.18h-2.4a21.6,21.6,0,1,0,0,43.19h87.07a21.59,21.59,0,0,0,21.6-21.6,21.38,21.38,0,0,0-1.7-8.4,21.59,21.59,0,0,0-19.9-13.19h-2.39a41.17,41.17,0,0,0-41.14-39.18Z"/><line class="cls-3" x1="1135.26" y1="1022.78" x2="1135.26" y2="1081.8"/><rect class="cls-4" x="1128.2" y="1088.04" width="14.12" height="14.12" rx="2.24" transform="translate(1106.86 -482) rotate(45)"/><line class="cls-3" x1="1062.9" y1="1095.09" x2="1121.85" y2="1095.09"/><line class="cls-3" x1="1207.57" y1="1095.1" x2="1148.56" y2="1095.1"/><line class="cls-3" x1="1135.27" y1="1167.47" x2="1135.27" y2="1108.52"/><line class="cls-3" x1="980.84" y1="875.6" x2="980.84" y2="934.61"/><rect class="cls-4" x="973.78" y="940.86" width="14.12" height="14.12" rx="2.24" transform="translate(957.56 -415.92) rotate(45)"/><line class="cls-3" x1="908.48" y1="947.91" x2="967.43" y2="947.91"/><line class="cls-3" x1="1053.15" y1="947.92" x2="994.14" y2="947.92"/><line class="cls-3" x1="980.85" y1="1020.28" x2="980.85" y2="961.33"/><line class="cls-3" x1="681.04" y1="875.6" x2="681.04" y2="934.61"/><rect class="cls-4" x="673.99" y="940.86" width="14.12" height="14.12" rx="2.24" transform="translate(869.75 -203.93) rotate(45)"/><line class="cls-3" x1="608.68" y1="947.91" x2="667.63" y2="947.91"/><line class="cls-3" x1="753.36" y1="947.92" x2="694.35" y2="947.92"/><line class="cls-3" x1="681.05" y1="1020.28" x2="681.05" y2="961.33"/><path class="cls-2" d="M1294.54,1049.16a35.08,35.08,0,0,1,34.83,39.18h8.7a15.48,15.48,0,0,1,15.48,15.48h0a15.48,15.48,0,0,1-15.48,15.48H1251a15.48,15.48,0,0,1-15.48-15.48h0a15.48,15.48,0,0,1,15.48-15.48h8.7a35.08,35.08,0,0,1,34.83-39.18m0-6.12a41.18,41.18,0,0,0-41.14,39.18H1251a21.59,21.59,0,0,0-21.6,21.6,21.59,21.59,0,0,0,21.6,21.59h87.06a21.6,21.6,0,1,0,0-43.19h-2.39a41.17,41.17,0,0,0-41.14-39.18Z"/><path class="cls-2" d="M1442.34,923.21a35.07,35.07,0,0,1,35.07,35.07,37,37,0,0,1-.24,4.11h8.7a15.48,15.48,0,0,1,15.48,15.48h0a15.48,15.48,0,0,1-15.48,15.48H1398.8a15.48,15.48,0,0,1-15.47-15.48h0a15.48,15.48,0,0,1,15.47-15.48h8.71a35.08,35.08,0,0,1,34.83-39.18m0-6.11a41.15,41.15,0,0,0-41.14,39.18h-2.4a21.6,21.6,0,1,0,0,43.19h87.07a21.6,21.6,0,1,0,0-43.19h-2.4a41.15,41.15,0,0,0-41.13-39.18Z"/><path class="cls-2" d="M1586.75,1049.16a35,35,0,0,1,34.82,39.18h8.71a15.48,15.48,0,0,1,15.48,15.48h0a15.48,15.48,0,0,1-15.48,15.48h-87.07a15.48,15.48,0,0,1-15.48-15.48h0a15.48,15.48,0,0,1,15.48-15.48h8.71a35.08,35.08,0,0,1,34.83-39.18m0-6.12a41.15,41.15,0,0,0-41.14,39.18h-2.4a21.6,21.6,0,1,0,0,43.19h87.07a21.6,21.6,0,1,0,0-43.19h-2.4a41.15,41.15,0,0,0-41.13-39.18Z"/><line class="cls-3" x1="1442.34" y1="1022.78" x2="1442.34" y2="1081.8"/><rect class="cls-4" x="1435.28" y="1088.04" width="14.12" height="14.12" rx="2.24" transform="translate(1196.8 -699.14) rotate(45)"/><line class="cls-3" x1="1369.98" y1="1095.09" x2="1428.93" y2="1095.09"/><line class="cls-3" x1="1514.65" y1="1095.1" x2="1455.64" y2="1095.1"/><line class="cls-3" x1="1442.35" y1="1167.47" x2="1442.35" y2="1108.52"/><path class="cls-2" d="M1743.94,923.21a35.08,35.08,0,0,1,34.83,39.18h8.71A15.48,15.48,0,0,1,1803,977.87h0a15.48,15.48,0,0,1-15.47,15.48h-87.07a15.48,15.48,0,0,1-15.48-15.48h0a15.48,15.48,0,0,1,15.48-15.48h8.7a37,37,0,0,1-.24-4.11,35.07,35.07,0,0,1,35.07-35.07m0-6.11a41.18,41.18,0,0,0-41.14,39.18h-2.39a21.6,21.6,0,1,0,0,43.19h87.07a21.6,21.6,0,1,0,0-43.19h-2.4a41.17,41.17,0,0,0-41.14-39.18Z"/><line class="cls-3" x1="1743.94" y1="1022.78" x2="1743.94" y2="1081.8"/><rect class="cls-4" x="1736.88" y="1088.04" width="14.12" height="14.12" rx="2.24" transform="translate(1285.14 -912.41) rotate(45)"/><line class="cls-3" x1="1671.58" y1="1095.09" x2="1730.53" y2="1095.09"/><line class="cls-3" x1="1816.26" y1="1095.1" x2="1757.24" y2="1095.1"/><line class="cls-3" x1="1743.95" y1="1167.47" x2="1743.95" y2="1108.52"/><line class="cls-3" x1="1589.52" y1="875.6" x2="1589.52" y2="934.61"/><rect class="cls-4" x="1582.46" y="940.86" width="14.12" height="14.12" rx="2.24" transform="translate(1135.84 -846.32) rotate(45)"/><line class="cls-3" x1="1517.16" y1="947.91" x2="1576.11" y2="947.91"/><line class="cls-3" x1="1661.84" y1="947.92" x2="1602.83" y2="947.92"/><line class="cls-3" x1="1589.53" y1="1020.28" x2="1589.53" y2="961.33"/><line class="cls-3" x1="1289.73" y1="875.6" x2="1289.73" y2="934.61"/><rect class="cls-4" x="1282.67" y="940.86" width="14.12" height="14.12" rx="2.24" transform="translate(1048.03 -634.34) rotate(45)"/><line class="cls-3" x1="1217.36" y1="947.91" x2="1276.32" y2="947.91"/><line class="cls-3" x1="1362.04" y1="947.92" x2="1303.03" y2="947.92"/><line class="cls-3" x1="1289.73" y1="1020.28" x2="1289.73" y2="961.33"/><path class="cls-2" d="M1903.22,1049.16a35.08,35.08,0,0,1,34.83,39.18h8.71a15.48,15.48,0,0,1,15.48,15.48h0a15.48,15.48,0,0,1-15.48,15.48h-87.07a15.48,15.48,0,0,1-15.48-15.48h0a15.48,15.48,0,0,1,15.48-15.48h8.7a37.18,37.18,0,0,1-.24-4.11,35.07,35.07,0,0,1,35.07-35.07m0-6.12a41.15,41.15,0,0,0-41.13,39.18h-2.4a21.6,21.6,0,1,0,0,43.19h87.07a21.38,21.38,0,0,0,8.4-1.7,21.54,21.54,0,0,0,11.49-11.49,21.59,21.59,0,0,0-4.62-23.67,21.56,21.56,0,0,0-15.27-6.33h-2.4a41.17,41.17,0,0,0-41.14-39.18Z"/><path class="cls-2" d="M2051,923.21a35.08,35.08,0,0,1,34.83,39.18h8.7A15.48,15.48,0,0,1,2110,977.87h0a15.48,15.48,0,0,1-15.48,15.48h-87.06A15.48,15.48,0,0,1,1992,977.87h0a15.48,15.48,0,0,1,15.48-15.48h8.7A35.08,35.08,0,0,1,2051,923.21m0-6.11a41.18,41.18,0,0,0-41.14,39.18h-2.39a21.6,21.6,0,1,0,0,43.19h87.06a21.6,21.6,0,1,0,0-43.19h-2.39A41.17,41.17,0,0,0,2051,917.1Z"/><path class="cls-2" d="M2195.43,1049.16a35.07,35.07,0,0,1,35.07,35.07,37.18,37.18,0,0,1-.24,4.11h8.7a15.48,15.48,0,0,1,15.48,15.48h0A15.48,15.48,0,0,1,2239,1119.3h-87.07a15.48,15.48,0,0,1-15.47-15.48h0a15.48,15.48,0,0,1,15.47-15.48h8.71a35.08,35.08,0,0,1,34.83-39.18m0-6.12a41.15,41.15,0,0,0-41.14,39.18h-2.4a21.6,21.6,0,1,0,0,43.19H2239a21.59,21.59,0,0,0,21.6-21.59,21.59,21.59,0,0,0-21.6-21.6h-2.4a41.15,41.15,0,0,0-41.13-39.18Z"/><line class="cls-3" x1="2051.02" y1="1022.78" x2="2051.02" y2="1081.8"/><rect class="cls-4" x="2043.96" y="1088.04" width="14.12" height="14.12" rx="2.24" transform="translate(1375.08 -1129.54) rotate(45)"/><line class="cls-3" x1="1978.66" y1="1095.09" x2="2037.61" y2="1095.09"/><line class="cls-3" x1="2123.33" y1="1095.1" x2="2064.32" y2="1095.1"/><line class="cls-3" x1="2051.03" y1="1167.47" x2="2051.03" y2="1108.52"/><path class="cls-2" d="M2352.62,923.21a35.08,35.08,0,0,1,34.83,39.18h8.71a15.48,15.48,0,0,1,15.48,15.48h0a15.48,15.48,0,0,1-15.48,15.48h-87.07a15.48,15.48,0,0,1-15.48-15.48h0a15.48,15.48,0,0,1,15.48-15.48h8.7a37,37,0,0,1-.24-4.11,35.07,35.07,0,0,1,35.07-35.07m0-6.11a41.15,41.15,0,0,0-41.13,39.18h-2.4a21.6,21.6,0,1,0,0,43.19h87.07a21.6,21.6,0,1,0,0-43.19h-2.4a41.15,41.15,0,0,0-41.14-39.18Z"/><line class="cls-3" x1="2352.62" y1="1022.78" x2="2352.62" y2="1081.8"/><rect class="cls-4" x="2345.56" y="1088.04" width="14.12" height="14.12" rx="2.24" transform="translate(1463.42 -1342.81) rotate(45)"/><line class="cls-3" x1="2280.26" y1="1095.09" x2="2339.21" y2="1095.09"/><line class="cls-3" x1="2424.94" y1="1095.1" x2="2365.93" y2="1095.1"/><line class="cls-3" x1="2352.63" y1="1167.47" x2="2352.63" y2="1108.52"/><line class="cls-3" x1="2198.2" y1="875.6" x2="2198.2" y2="934.61"/><rect class="cls-4" x="2191.15" y="940.86" width="14.12" height="14.12" rx="2.24" transform="translate(1314.12 -1276.73) rotate(45)"/><line class="cls-3" x1="2125.84" y1="947.91" x2="2184.79" y2="947.91"/><line class="cls-3" x1="2270.52" y1="947.92" x2="2211.51" y2="947.92"/><line class="cls-3" x1="2198.21" y1="1020.28" x2="2198.21" y2="961.33"/><line class="cls-3" x1="1898.41" y1="875.6" x2="1898.41" y2="934.61"/><rect class="cls-4" x="1891.35" y="940.86" width="14.12" height="14.12" rx="2.24" transform="translate(1226.31 -1064.74) rotate(45)"/><line class="cls-3" x1="1826.05" y1="947.91" x2="1885" y2="947.91"/><line class="cls-3" x1="1970.72" y1="947.92" x2="1911.71" y2="947.92"/><line class="cls-3" x1="1898.42" y1="1020.28" x2="1898.42" y2="961.33"/></g></g></g></svg>