<svg xmlns="http://www.w3.org/2000/svg" viewBox="0 0 950.72 425.59"><defs><style>.cls-1{fill:#f47f24;}.cls-2{fill:#281c5f;}</style></defs><title>trip dudeAsset 1logo white</title><g id="Layer_2" data-name="Layer 2"><g id="Layer_1-2" data-name="Layer 1"><path class="cls-1" d="M943.7,229.75,828.94,344.51l-16.07,16.08A213.08,213.08,0,0,1,764,397.36q-3.43,1.86-6.94,3.61a236.3,236.3,0,0,1-105.63,24.62c-72.26,0-136.59-31.93-178-81.62a4.92,4.92,0,0,1,3.8-8.05H715a73.64,73.64,0,1,0,0-147.28h0a8.83,8.83,0,0,1-8.78-7.93,140.06,140.06,0,0,0-39.43-83.6l-.94-1a140.35,140.35,0,0,0-198.62,0l-.23.23a2,2,0,0,1-3-2.53C504.63,37.23,573.42,0,651.44,0A236.11,236.11,0,0,1,757.07,24.63c2.34,1.16,4.65,2.37,6.95,3.61A212.55,212.55,0,0,1,812.85,65L829,81.09l37.42,37.42,77.33,77.33A24,24,0,0,1,943.7,229.75Z"/><path class="cls-2" d="M91.72,277.24a2.26,2.26,0,0,1,2.17,2.87c-5.22,17.94-19.62,30.79-44.35,30.79C16.14,310.9,0,286.7,0,256.21c0-29.36,16.48-55.75,50.46-55.75,26.08,0,39.86,14.4,43.6,31.22a2.26,2.26,0,0,1-2.21,2.73H76.07A2.24,2.24,0,0,1,74,232.9c-3-8.83-9.58-16.4-24.18-16.4-20.71,0-28.89,18.71-28.89,39,0,19.16,7.37,39.35,29.51,39.35,14.7,0,20.56-8.77,23.47-16.21a2.21,2.21,0,0,1,2.08-1.41Z"/><path class="cls-2" d="M107.21,307.19V198.08a2.26,2.26,0,0,1,2.26-2.25h14.8a2.25,2.25,0,0,1,2.25,2.25V307.19a2.25,2.25,0,0,1-2.25,2.25h-14.8A2.26,2.26,0,0,1,107.21,307.19Z"/><path class="cls-2" d="M216.87,269.36c0,23.77-14,41.94-39,41.94-24.13,0-38.38-17.67-38.38-41.56,0-24.28,14.45-42,39.37-42C201.9,227.73,216.87,244.32,216.87,269.36Zm-57.73.16c0,16.09,7.33,26.42,19.22,26.42,12.09,0,18.85-10.12,18.85-26.31,0-17.13-6.82-26.54-19.16-26.54C166.22,243.09,159.14,252.19,159.14,269.52Z"/><path class="cls-2" d="M298.13,286.22c0,6.83,0,14.81.12,20.94a2.24,2.24,0,0,1-2.25,2.28H281.43a2.25,2.25,0,0,1-2.24-2.07c0-.49-.08-1-.11-1.56a2.25,2.25,0,0,0-3.89-1.4c-4.46,4.73-10.69,6.89-19.09,6.89-15.32,0-26.56-8.81-26.56-29.53V231.85a2.25,2.25,0,0,1,2.25-2.25h14.76a2.25,2.25,0,0,1,2.25,2.25v46c0,9.38,2.92,17.47,13.73,17.47,11.62,0,16.29-6.3,16.29-23.51v-40a2.26,2.26,0,0,1,2.26-2.25h14.8a2.25,2.25,0,0,1,2.25,2.25Z"/><path class="cls-2" d="M385.28,195.83a2.25,2.25,0,0,1,2.25,2.25v89.21c0,6.59,0,13.2.11,19.86a2.24,2.24,0,0,1-2.24,2.29H371.07a2.24,2.24,0,0,1-2.23-2c-.06-.48-.11-1-.17-1.5a2.25,2.25,0,0,0-3.85-1.34c-4.26,4.23-10.72,6.68-20.08,6.68-20.3,0-33.07-16.35-33.07-41.07s13.64-42.5,36.07-42.5c8.12,0,13.59,2,16.92,4.45a2.24,2.24,0,0,0,3.56-1.83V198.08a2.25,2.25,0,0,1,2.25-2.25ZM331.55,269.7c0,16.82,7.11,25.92,18.51,25.92,16.37,0,18.91-13.05,18.91-26.55,0-15-2.53-25.65-18.17-25.65C338.37,243.42,331.55,253.18,331.55,269.7Z"/><path class="cls-2" d="M419.06,204.27a2.25,2.25,0,0,1,2.25-2.25h38.91c30.91,0,51.35,20.59,51.35,52.45,0,31.48-19.87,55-52.16,55h-38.1a2.25,2.25,0,0,1-2.25-2.25Zm20.15,86.44a2.25,2.25,0,0,0,2.25,2.25h16.92c22.21,0,32.31-16.27,32.31-38.35,0-18.8-9.36-36.12-32.2-36.12h-17a2.26,2.26,0,0,0-2.25,2.26Z"/><path class="cls-2" d="M589.65,289.89c0,5.81.37,13.14.76,17.09a2.24,2.24,0,0,1-2.24,2.46H574a2.23,2.23,0,0,1-2.2-1.81c-.09-.42-.16-.89-.23-1.38a2.26,2.26,0,0,0-3.82-1.29c-3.57,3.41-9.47,6.34-19.85,6.34-19.11,0-27.2-12.52-27.2-24.82,0-18.07,14.4-26.38,37.91-26.38h9.89a2.26,2.26,0,0,0,2.26-2.25v-3.27c0-6.14-2.12-12.73-13.94-12.73-9.62,0-12.29,3.94-13.58,9.05a2.27,2.27,0,0,1-2.19,1.74H527a2.26,2.26,0,0,1-2.24-2.59c2-12.05,10.52-22.42,32.78-22.32,20.75.11,32.11,8.33,32.11,27.05Zm-18.83-15.41a2.25,2.25,0,0,0-2.25-2.25H560.5c-14.19,0-20.34,4.17-20.34,13.07,0,6.63,4.27,11.89,12.86,11.89,15.79,0,17.8-10.84,17.8-22.71Z"/><path class="cls-2" d="M607.86,251.27c0-7.88,0-14.05-.11-19.39A2.24,2.24,0,0,1,610,229.6h14.57a2.25,2.25,0,0,1,2.25,2.1c.08,1.24.15,2.82.21,4.55a2.24,2.24,0,0,0,4,1.36c4.32-5.45,11-9.1,19.8-9.77a2.25,2.25,0,0,1,2.41,2.25v14a2.25,2.25,0,0,1-2.19,2.25c-14.85.43-23.86,6.59-23.86,26.92v33.89a2.25,2.25,0,0,1-2.25,2.25h-14.8a2.26,2.26,0,0,1-2.26-2.25Z"/><path class="cls-2" d="M661,229.6h8.31a2.25,2.25,0,0,0,2.25-2.25V209.58a2.25,2.25,0,0,1,2.25-2.25h14.81a2.25,2.25,0,0,1,2.25,2.25v17.77a2.25,2.25,0,0,0,2.25,2.25h11.8a2.25,2.25,0,0,1,2.25,2.25v10.31a2.25,2.25,0,0,1-2.25,2.25h-11.8a2.25,2.25,0,0,0-2.25,2.25v39.63c0,6.63,1.86,9.53,8.66,9.53.87,0,2.06,0,3.27-.1a2.25,2.25,0,0,1,2.41,2.25v9.36a2.22,2.22,0,0,1-1.67,2.18,53.64,53.64,0,0,1-12.2,1c-14.52,0-19.78-7.7-19.78-21.43V246.66a2.25,2.25,0,0,0-2.25-2.25H661a2.25,2.25,0,0,1-2.25-2.25V231.85A2.25,2.25,0,0,1,661,229.6Z"/></g></g></svg>