<svg id="svg" version="1.1" xmlns="http://www.w3.org/2000/svg" xmlns:xlink="http://www.w3.org/1999/xlink" width="400" height="262.59259259259255" viewBox="0, 0, 400,262.59259259259255"><g id="svgg"><path id="path0" d="M321.069 78.923 C 321.069 87.879,321.102 91.581,321.142 87.150 C 321.183 82.718,321.183 75.390,321.142 70.866 C 321.102 66.341,321.069 69.967,321.069 78.923 M54.826 120.481 C 55.440 120.537,56.445 120.537,57.058 120.481 C 57.672 120.426,57.170 120.381,55.942 120.381 C 54.714 120.381,54.212 120.426,54.826 120.481 M180.330 160.888 C 180.242 161.117,180.171 163.283,180.171 165.703 C 180.171 170.826,180.339 170.432,178.289 170.102 C 172.266 169.132,167.958 173.334,167.958 180.178 C 167.958 187.710,173.147 191.685,179.132 188.736 L 180.937 187.847 181.356 188.486 C 181.736 189.066,181.925 189.118,183.402 189.047 L 185.030 188.969 185.097 174.721 L 185.165 160.473 182.827 160.473 C 180.938 160.473,180.459 160.552,180.330 160.888 M222.843 160.791 C 222.771 160.977,222.744 167.393,222.781 175.049 L 222.850 188.969 225.213 188.969 L 227.577 188.969 227.650 185.338 C 227.692 183.253,227.827 181.744,227.967 181.793 C 228.101 181.840,229.437 183.473,230.934 185.424 L 233.658 188.969 236.290 189.044 C 240.555 189.164,240.568 189.261,235.435 182.742 C 231.447 177.676,231.467 177.732,233.149 176.338 C 237.365 172.843,238.477 171.720,238.477 170.954 L 238.477 170.190 235.717 170.190 L 232.957 170.190 230.613 172.292 C 229.325 173.447,228.146 174.393,227.994 174.393 C 227.809 174.393,227.694 172.104,227.647 167.498 L 227.577 160.604 225.275 160.528 C 223.581 160.472,222.938 160.542,222.843 160.791 M240.510 161.424 C 240.076 161.554,240.052 162.383,240.116 175.266 L 240.184 188.969 244.649 189.044 C 247.104 189.085,250.087 189.001,251.276 188.857 C 265.150 187.177,267.805 166.709,254.760 161.996 C 253.335 161.480,241.856 161.020,240.510 161.424 M297.249 165.946 C 296.009 167.130,295.870 167.379,295.742 168.654 L 295.601 170.059 293.500 170.075 C 291.359 170.090,289.074 170.796,288.354 171.664 C 287.885 172.230,287.630 172.106,287.213 171.110 C 286.831 170.194,286.823 170.190,285.137 170.190 C 282.967 170.190,283.125 169.444,283.125 179.645 C 283.125 190.048,282.859 189.100,285.780 189.100 C 288.597 189.100,288.196 190.055,288.366 182.941 L 288.510 176.912 289.560 176.186 C 290.138 175.787,291.024 175.388,291.530 175.300 C 292.035 175.212,292.996 174.954,293.665 174.726 C 295.720 174.026,295.666 173.888,295.778 180.218 C 295.884 186.200,295.996 186.749,297.376 188.074 C 299.053 189.683,302.103 190.085,304.802 189.052 L 306.302 188.478 306.168 186.807 C 305.981 184.486,305.538 184.023,304.005 184.545 C 301.020 185.562,300.785 185.179,300.748 179.238 C 300.717 174.244,300.637 174.393,303.373 174.393 C 305.665 174.393,305.712 174.350,305.712 172.292 C 305.712 170.228,305.669 170.190,303.336 170.190 C 300.858 170.190,300.892 170.230,300.722 167.170 L 300.591 164.806 299.603 164.725 C 298.728 164.652,298.460 164.792,297.249 165.946 M252.781 166.682 C 257.580 168.317,259.078 176.810,255.377 181.401 C 253.505 183.723,247.086 185.479,245.446 184.118 C 245.024 183.768,244.806 166.838,245.218 166.426 C 245.599 166.045,251.498 166.245,252.781 166.682 M193.412 170.160 C 185.385 172.458,184.973 186.523,192.855 189.202 C 200.052 191.648,206.145 186.112,205.134 178.044 C 204.328 171.619,199.548 168.403,193.412 170.160 M212.441 170.076 C 202.440 173.155,204.925 190.221,215.274 189.534 C 219.474 189.256,221.494 188.355,221.132 186.921 C 220.334 183.758,220.173 183.616,218.238 184.379 C 213.988 186.054,211.431 184.200,211.426 179.440 C 211.423 175.197,214.144 173.278,217.985 174.815 C 219.390 175.377,219.710 175.202,220.485 173.449 C 221.334 171.530,221.319 171.385,220.218 170.862 C 217.944 169.783,214.518 169.437,212.441 170.076 M269.731 170.287 C 265.668 171.638,265.334 172.063,266.468 174.436 C 267.316 176.209,267.447 176.241,269.599 175.181 C 271.501 174.244,273.852 174.087,274.509 174.852 C 275.590 176.111,275.233 177.019,273.655 177.019 C 269.914 177.019,266.089 178.960,265.006 181.407 C 262.527 187.013,268.338 191.599,274.173 188.640 C 275.100 188.170,275.881 187.816,275.910 187.852 C 275.939 187.889,276.104 188.190,276.277 188.521 C 276.563 189.072,276.742 189.117,278.348 189.046 L 280.105 188.969 280.105 181.221 L 280.105 173.473 279.454 172.554 C 277.520 169.823,273.762 168.947,269.731 170.287 M198.722 175.013 C 200.745 177.365,200.298 183.189,197.982 184.644 C 194.439 186.872,191.306 182.135,192.952 177.038 C 193.867 174.206,197.063 173.084,198.722 175.013 M179.344 174.681 L 180.171 174.969 180.171 179.105 C 180.171 183.647,180.197 183.568,178.411 184.473 C 176.127 185.629,174.004 184.597,173.217 181.947 C 171.872 177.418,175.352 173.290,179.344 174.681 M275.086 181.814 C 275.847 183.020,273.608 184.898,271.409 184.898 C 268.433 184.898,269.780 181.949,272.966 181.488 C 274.614 181.249,274.742 181.268,275.086 181.814 " stroke="none" fill="#1f2778" fill-rule="evenodd"></path><path id="path1" d="M179.580 15.410 C 179.183 15.617,178.858 15.962,178.858 16.175 C 178.858 16.388,178.681 16.631,178.465 16.713 C 178.249 16.796,178.130 16.957,178.201 17.072 C 178.271 17.186,178.154 17.346,177.941 17.428 C 177.603 17.558,177.552 19.822,177.552 34.651 L 177.552 51.726 178.595 52.849 C 179.169 53.467,179.640 53.876,179.642 53.758 C 179.644 53.639,179.991 53.789,180.413 54.089 C 181.268 54.698,216.968 54.959,217.338 54.359 C 217.425 54.219,217.696 54.104,217.941 54.103 C 218.525 54.103,219.829 52.970,219.829 52.462 C 219.829 52.243,220.066 52.002,220.355 51.927 C 220.862 51.794,221.058 50.478,220.951 47.932 C 220.914 47.049,220.897 44.024,220.925 43.467 C 220.940 43.178,220.940 42.173,220.925 41.234 C 220.909 40.295,220.899 39.261,220.902 38.936 C 220.905 38.611,220.900 37.548,220.891 36.573 C 220.860 33.056,220.846 26.388,220.869 26.067 C 220.904 25.569,220.910 24.854,220.906 21.208 C 220.904 19.366,220.798 17.859,220.670 17.859 C 220.542 17.859,220.164 17.328,219.829 16.678 C 219.453 15.946,219.043 15.496,218.753 15.496 C 218.495 15.496,218.211 15.376,218.120 15.230 C 217.835 14.768,180.476 14.942,179.580 15.410 M227.708 15.233 C 227.708 15.378,227.531 15.496,227.315 15.496 C 227.098 15.496,226.921 15.665,226.921 15.872 C 226.921 16.079,226.684 16.323,226.395 16.415 C 226.106 16.507,225.870 16.803,225.870 17.074 C 225.870 17.344,225.744 17.644,225.589 17.739 C 225.435 17.835,225.372 18.078,225.450 18.280 C 225.527 18.482,225.476 18.647,225.336 18.647 C 225.175 18.647,225.082 24.509,225.082 34.668 C 225.082 44.828,225.175 50.689,225.336 50.689 C 225.476 50.689,225.523 50.867,225.440 51.083 C 225.357 51.300,225.405 51.477,225.546 51.477 C 225.688 51.477,225.875 51.832,225.962 52.265 C 226.049 52.699,226.241 53.053,226.389 53.053 C 226.537 53.053,226.894 53.290,227.183 53.578 C 227.472 53.867,227.938 54.104,228.218 54.104 C 228.499 54.104,228.799 54.219,228.886 54.359 C 229.145 54.779,264.108 54.708,265.313 54.286 C 266.644 53.820,267.892 52.814,267.892 52.207 C 267.892 51.930,268.071 51.523,268.290 51.305 C 268.880 50.715,268.746 19.000,268.148 17.597 C 267.629 16.379,266.834 15.496,266.258 15.496 C 266.001 15.496,265.791 15.378,265.791 15.233 C 265.791 15.060,259.269 14.970,246.750 14.970 C 234.231 14.970,227.708 15.060,227.708 15.233 M274.984 16.007 L 273.802 17.029 273.729 34.227 C 273.663 49.700,273.698 51.467,274.076 51.845 C 274.307 52.076,274.424 52.265,274.337 52.265 C 273.848 52.265,274.885 53.363,275.919 53.941 L 277.126 54.615 294.975 54.625 C 308.609 54.633,312.962 54.560,313.405 54.313 C 313.725 54.136,314.045 53.977,314.117 53.960 C 316.865 53.304,316.765 54.065,316.683 34.497 L 316.612 17.466 315.824 16.481 C 315.334 15.868,314.813 15.496,314.445 15.496 C 314.120 15.496,313.854 15.378,313.854 15.233 C 313.854 15.060,307.403 14.973,295.010 14.978 L 276.165 14.986 274.984 16.007 M89.560 25.047 C 89.343 25.257,88.177 25.956,86.969 26.602 C 85.761 27.247,84.549 27.966,84.277 28.199 C 84.005 28.432,83.782 28.557,83.782 28.476 C 83.782 28.300,82.144 29.421,81.913 29.755 C 81.825 29.883,81.512 30.125,81.218 30.293 C 79.766 31.122,77.680 32.741,75.925 34.402 C 74.854 35.415,73.879 36.244,73.758 36.244 C 73.638 36.244,73.539 36.376,73.539 36.537 C 73.539 36.698,72.951 37.391,72.233 38.076 C 71.514 38.761,70.982 39.378,71.050 39.446 C 71.119 39.514,70.879 39.728,70.518 39.921 C 70.157 40.115,69.862 40.346,69.862 40.436 C 69.862 40.525,69.389 41.121,68.812 41.760 C 68.234 42.398,67.761 43.020,67.761 43.141 C 67.761 43.262,67.466 43.634,67.104 43.969 C 66.743 44.304,66.448 44.712,66.448 44.876 C 66.448 45.040,66.355 45.174,66.242 45.174 C 65.966 45.174,65.046 46.748,65.317 46.758 C 65.433 46.762,65.334 46.879,65.097 47.018 C 64.633 47.288,63.444 49.376,63.753 49.376 C 63.855 49.376,63.685 49.554,63.375 49.771 C 63.066 49.987,62.738 50.503,62.647 50.917 C 62.556 51.331,62.261 51.907,61.990 52.197 C 61.720 52.487,61.347 53.242,61.163 53.874 C 60.978 54.506,60.683 55.112,60.506 55.222 C 60.330 55.331,60.103 55.795,60.002 56.254 C 59.901 56.713,59.595 57.488,59.320 57.977 C 59.046 58.465,58.881 58.962,58.955 59.081 C 59.028 59.200,58.912 59.443,58.697 59.622 C 58.482 59.800,58.306 60.234,58.306 60.585 C 58.306 60.936,58.061 61.761,57.762 62.417 C 57.463 63.073,57.281 63.772,57.357 63.970 C 57.433 64.168,57.382 64.400,57.244 64.485 C 57.106 64.570,56.993 65.034,56.993 65.516 C 56.993 66.052,56.840 66.450,56.599 66.543 C 56.342 66.641,56.205 67.049,56.205 67.712 C 56.205 69.179,55.541 69.728,54.342 69.252 C 53.773 69.026,52.111 68.876,49.778 68.839 C 47.678 68.805,45.967 68.662,45.775 68.503 C 45.330 68.134,36.059 68.158,35.611 68.529 C 35.431 68.679,33.875 68.817,32.153 68.837 C 30.431 68.856,28.903 68.946,28.759 69.035 C 28.615 69.124,28.437 69.209,28.365 69.223 C 28.293 69.237,27.938 69.325,27.577 69.420 C 27.216 69.514,26.448 69.643,25.870 69.706 C 24.296 69.878,22.015 70.409,21.274 70.777 C 20.913 70.957,20.466 71.049,20.280 70.983 C 20.095 70.917,19.656 71.052,19.305 71.282 C 18.953 71.512,18.396 71.704,18.066 71.709 C 17.389 71.718,16.464 72.319,16.725 72.580 C 16.820 72.674,16.581 72.766,16.196 72.784 C 15.258 72.828,15.165 72.850,14.708 73.142 C 14.491 73.280,14.077 73.428,13.789 73.471 C 13.500 73.514,13.132 73.724,12.972 73.938 C 12.811 74.152,12.498 74.327,12.276 74.327 C 11.910 74.327,9.861 75.547,8.536 76.554 C 8.247 76.773,7.183 77.580,6.172 78.346 C 4.134 79.891,3.490 80.841,3.928 81.659 C 4.079 81.941,4.202 82.460,4.202 82.813 C 4.202 83.166,4.378 83.601,4.593 83.780 C 4.808 83.958,4.919 84.210,4.838 84.340 C 4.758 84.470,4.878 84.948,5.104 85.402 C 5.330 85.855,5.515 86.456,5.515 86.737 C 5.515 87.314,6.309 88.772,6.623 88.772 C 6.736 88.772,6.829 89.068,6.829 89.429 C 6.829 89.790,6.947 90.085,7.091 90.085 C 7.236 90.085,7.354 90.322,7.354 90.611 C 7.354 90.900,7.579 91.361,7.853 91.635 C 8.128 91.910,8.439 92.406,8.544 92.737 C 8.649 93.068,8.986 93.549,9.292 93.805 C 9.598 94.061,9.762 94.274,9.656 94.279 C 9.328 94.294,12.020 98.227,12.358 98.227 C 12.455 98.227,12.478 98.519,12.410 98.876 C 12.310 99.396,12.435 99.591,13.037 99.857 C 13.450 100.040,13.956 100.427,14.160 100.718 C 15.225 102.238,21.179 107.682,21.776 107.682 C 21.950 107.682,22.025 107.791,21.943 107.925 C 21.861 108.058,22.261 108.373,22.832 108.625 C 23.403 108.877,23.848 109.170,23.820 109.277 C 23.761 109.500,25.639 110.834,26.013 110.834 C 26.151 110.834,26.500 111.070,26.789 111.359 C 27.078 111.648,27.492 111.884,27.708 111.884 C 27.925 111.884,28.102 111.995,28.102 112.129 C 28.102 112.264,28.325 112.445,28.597 112.531 C 28.868 112.617,30.019 113.217,31.153 113.863 C 32.288 114.510,33.333 115.000,33.477 114.952 C 33.620 114.904,33.970 115.081,34.253 115.344 C 34.536 115.608,34.962 115.824,35.199 115.824 C 35.437 115.824,35.714 115.906,35.814 116.007 C 35.915 116.107,36.141 116.211,36.318 116.237 C 36.494 116.263,37.204 116.476,37.895 116.710 C 38.586 116.945,39.371 117.137,39.640 117.137 C 39.908 117.137,40.196 117.315,40.279 117.531 C 40.368 117.763,40.762 117.925,41.239 117.925 C 41.684 117.925,42.537 118.162,43.135 118.450 C 43.733 118.739,44.666 118.976,45.208 118.976 C 45.750 118.976,46.260 119.083,46.340 119.213 C 46.421 119.344,47.048 119.455,47.735 119.460 C 48.421 119.466,50.165 119.647,51.611 119.863 C 53.057 120.079,55.160 120.207,56.285 120.147 C 57.410 120.086,58.267 120.139,58.190 120.264 C 57.962 120.633,59.063 120.806,61.720 120.819 C 64.409 120.832,65.016 121.061,65.237 122.146 C 65.434 123.112,65.827 124.336,66.124 124.903 C 66.270 125.182,66.564 125.824,66.777 126.330 C 66.991 126.835,67.354 127.663,67.585 128.168 C 67.816 128.674,68.081 129.412,68.174 129.810 C 68.267 130.207,68.449 130.532,68.577 130.532 C 68.706 130.532,68.812 130.680,68.813 130.860 C 68.814 131.041,69.002 131.543,69.231 131.976 C 69.459 132.410,69.691 132.987,69.746 133.260 C 69.801 133.532,70.011 133.946,70.213 134.179 C 70.414 134.412,70.660 134.941,70.758 135.354 C 70.917 136.021,71.342 137.070,72.316 139.199 C 72.481 139.560,72.794 140.033,73.012 140.250 C 73.370 140.606,73.492 140.885,73.644 141.694 C 73.759 142.308,74.708 144.189,74.903 144.189 C 75.019 144.189,75.115 144.410,75.115 144.679 C 75.115 144.948,75.351 145.469,75.640 145.837 C 75.929 146.204,76.165 146.590,76.165 146.696 C 76.165 147.113,78.397 151.425,78.715 151.622 C 78.902 151.737,79.054 151.985,79.054 152.172 C 79.054 152.600,79.799 154.112,80.103 154.299 C 80.227 154.376,80.471 154.867,80.643 155.391 C 80.931 156.263,81.795 157.761,82.475 158.569 C 82.628 158.749,82.659 158.901,82.545 158.906 C 82.431 158.910,82.574 159.117,82.863 159.365 C 83.152 159.613,83.426 160.053,83.472 160.341 C 83.518 160.630,83.707 160.985,83.892 161.129 C 84.077 161.274,84.238 161.484,84.250 161.597 C 84.308 162.135,85.258 163.874,85.497 163.880 C 85.646 163.884,85.904 164.212,86.070 164.609 C 86.465 165.555,87.275 166.884,87.525 166.995 C 87.633 167.043,87.722 167.250,87.722 167.455 C 87.722 167.659,87.827 167.827,87.956 167.827 C 88.084 167.827,88.368 168.270,88.587 168.812 C 88.805 169.353,89.290 170.151,89.666 170.584 C 90.041 171.018,90.348 171.516,90.348 171.691 C 90.348 171.867,90.584 172.137,90.873 172.292 C 91.162 172.446,91.399 172.720,91.399 172.900 C 91.399 173.081,91.626 173.520,91.904 173.876 C 93.203 175.540,94.288 177.036,94.288 177.164 C 94.288 177.241,94.536 177.565,94.840 177.884 C 95.144 178.203,95.583 178.759,95.815 179.120 C 96.221 179.752,98.318 182.584,98.876 183.253 C 99.025 183.432,99.737 184.358,100.460 185.311 C 101.182 186.264,102.275 187.582,102.889 188.241 C 103.503 188.900,104.005 189.534,104.005 189.651 C 104.005 189.767,104.190 189.966,104.417 190.093 C 104.643 190.219,105.056 190.668,105.334 191.090 C 105.613 191.513,105.841 191.752,105.842 191.622 C 105.843 191.492,106.218 191.902,106.676 192.534 C 107.134 193.166,107.991 194.173,108.580 194.772 C 109.170 195.371,111.248 197.492,113.198 199.484 C 115.148 201.477,117.183 203.426,117.719 203.817 C 118.256 204.207,118.640 204.582,118.572 204.650 C 118.410 204.812,122.547 208.273,122.904 208.273 C 123.055 208.273,123.178 208.470,123.178 208.711 C 123.178 208.952,123.247 209.080,123.331 208.996 C 123.415 208.911,123.917 209.282,124.447 209.819 C 124.977 210.355,125.822 211.082,126.326 211.434 C 126.830 211.786,127.437 212.253,127.675 212.472 C 127.913 212.690,128.718 213.342,129.463 213.920 C 130.208 214.498,131.221 215.302,131.712 215.708 C 132.204 216.114,132.678 216.430,132.767 216.412 C 132.906 216.383,134.549 217.692,135.654 218.713 C 135.850 218.894,136.166 219.042,136.357 219.043 C 136.548 219.043,137.065 219.383,137.507 219.797 C 137.949 220.211,138.554 220.627,138.851 220.722 C 139.149 220.816,139.603 221.127,139.862 221.412 C 140.120 221.697,140.475 221.930,140.652 221.930 C 140.829 221.930,141.135 222.127,141.334 222.367 C 141.532 222.607,142.181 223.019,142.776 223.283 C 143.370 223.547,144.005 223.941,144.187 224.160 C 144.368 224.378,144.675 224.557,144.869 224.557 C 145.063 224.557,145.610 224.894,146.084 225.307 C 146.559 225.720,147.380 226.198,147.908 226.370 C 148.437 226.543,148.939 226.862,149.023 227.081 C 149.107 227.300,149.295 227.406,149.440 227.316 C 149.586 227.226,149.706 227.248,149.708 227.365 C 149.709 227.482,150.178 227.801,150.750 228.075 C 151.322 228.349,151.726 228.675,151.650 228.799 C 151.573 228.924,151.665 229.070,151.855 229.124 C 153.774 229.672,154.483 229.949,154.731 230.247 C 154.891 230.440,155.303 230.598,155.646 230.598 C 155.990 230.598,156.271 230.692,156.271 230.808 C 156.271 231.100,158.619 232.214,158.887 232.048 C 159.006 231.974,159.172 232.090,159.255 232.306 C 159.338 232.522,159.646 232.699,159.939 232.699 C 160.233 232.699,160.473 232.803,160.473 232.931 C 160.473 233.136,160.722 233.249,161.655 233.463 C 161.799 233.497,162.124 233.711,162.377 233.940 C 162.630 234.169,162.837 234.255,162.837 234.131 C 162.837 234.008,162.978 234.049,163.152 234.222 C 163.325 234.395,163.667 234.537,163.911 234.537 C 164.156 234.537,164.425 234.715,164.508 234.933 C 164.592 235.152,164.752 235.311,164.865 235.287 C 165.083 235.241,166.491 235.807,168.249 236.648 C 168.843 236.931,169.460 237.163,169.620 237.163 C 169.781 237.163,170.300 237.376,170.773 237.635 C 171.247 237.895,172.167 238.269,172.817 238.467 C 173.467 238.665,174.367 239.044,174.818 239.308 C 175.268 239.573,175.866 239.790,176.147 239.790 C 176.428 239.790,177.147 240.026,177.745 240.315 C 178.343 240.604,179.015 240.840,179.239 240.840 C 179.462 240.840,179.645 240.945,179.645 241.073 C 179.645 241.201,180.207 241.389,180.893 241.491 C 181.579 241.592,182.340 241.853,182.584 242.071 C 182.827 242.289,183.152 242.390,183.306 242.295 C 183.459 242.200,183.585 242.248,183.585 242.401 C 183.585 242.554,183.984 242.679,184.472 242.679 C 184.960 242.679,185.505 242.855,185.684 243.070 C 185.862 243.285,186.087 243.412,186.184 243.352 C 186.281 243.292,186.900 243.517,187.560 243.852 C 188.313 244.234,189.021 244.409,189.464 244.325 C 189.906 244.240,190.345 244.349,190.639 244.615 C 190.897 244.849,191.665 245.116,192.344 245.209 C 193.024 245.302,193.643 245.480,193.719 245.605 C 193.796 245.729,194.377 245.831,195.010 245.831 C 195.643 245.831,196.232 245.946,196.319 246.086 C 196.542 246.447,198.360 246.900,200.239 247.062 C 201.119 247.137,202.027 247.366,202.257 247.569 C 202.488 247.773,204.024 248.185,205.672 248.485 C 207.319 248.785,208.854 249.127,209.082 249.244 C 209.310 249.361,210.315 249.536,211.314 249.634 C 212.314 249.732,213.511 249.984,213.975 250.192 C 214.438 250.401,215.265 250.556,215.813 250.537 C 216.361 250.517,217.754 250.687,218.910 250.915 C 220.066 251.142,221.372 251.332,221.812 251.337 C 222.253 251.342,222.751 251.484,222.919 251.652 C 223.107 251.840,224.218 251.967,225.795 251.980 C 227.209 251.993,228.441 252.107,228.533 252.234 C 228.626 252.361,230.103 252.504,231.816 252.551 C 235.247 252.644,236.821 252.842,237.046 253.207 C 237.129 253.341,239.863 253.447,243.204 253.447 C 246.747 253.447,249.278 253.550,249.369 253.698 C 249.588 254.052,269.640 254.069,269.859 253.715 C 269.963 253.546,272.190 253.447,275.896 253.447 C 279.533 253.447,281.802 253.348,281.856 253.187 C 282.005 252.744,286.222 252.287,286.677 252.665 C 286.962 252.901,287.255 252.913,287.787 252.710 C 288.758 252.340,290.734 252.090,292.621 252.099 C 293.473 252.103,294.112 252.012,294.040 251.896 C 293.968 251.780,294.201 251.740,294.558 251.809 C 294.935 251.881,295.207 251.810,295.207 251.639 C 295.207 251.467,295.689 251.346,296.372 251.346 C 297.012 251.346,298.401 251.151,299.458 250.913 C 300.514 250.675,301.827 250.501,302.375 250.527 C 302.922 250.552,303.750 250.403,304.213 250.196 C 304.677 249.989,305.751 249.746,306.602 249.657 C 307.452 249.568,308.267 249.421,308.414 249.330 C 308.560 249.239,309.047 249.131,309.494 249.088 C 309.942 249.046,311.063 248.768,311.984 248.471 C 312.906 248.175,313.926 247.932,314.250 247.932 C 314.575 247.932,314.978 247.765,315.147 247.562 C 315.411 247.244,316.967 246.942,318.688 246.874 C 318.963 246.863,319.664 246.624,320.247 246.343 C 320.830 246.061,321.632 245.831,322.030 245.831 C 322.428 245.831,322.816 245.728,322.894 245.602 C 322.972 245.477,323.537 245.294,324.150 245.196 C 324.764 245.098,325.459 244.843,325.695 244.629 C 325.931 244.415,326.558 244.185,327.088 244.117 C 327.618 244.049,328.651 243.690,329.384 243.318 C 330.117 242.947,330.638 242.770,330.542 242.926 C 330.426 243.113,330.594 243.105,331.040 242.901 C 331.411 242.733,331.714 242.495,331.714 242.374 C 331.714 242.253,331.957 242.154,332.255 242.154 C 332.571 242.154,332.723 242.037,332.622 241.873 C 332.527 241.719,332.609 241.620,332.804 241.654 C 333.372 241.750,334.617 241.370,336.310 240.581 C 337.177 240.178,338.093 239.779,338.345 239.696 C 338.598 239.612,338.805 239.422,338.805 239.273 C 338.805 239.124,338.954 239.002,339.135 239.002 C 339.616 239.002,343.777 236.880,344.802 236.112 C 345.284 235.751,345.756 235.477,345.853 235.503 C 345.949 235.529,346.404 235.263,346.864 234.912 C 347.323 234.561,347.821 234.274,347.968 234.274 C 348.425 234.274,351.012 232.445,352.421 231.127 C 352.805 230.768,353.181 230.472,353.256 230.470 C 353.332 230.468,353.687 230.190,354.044 229.853 C 354.402 229.516,355.009 229.075,355.394 228.873 C 355.778 228.672,356.313 228.239,356.582 227.911 C 356.851 227.583,357.246 227.276,357.459 227.229 C 357.672 227.182,357.884 227.040,357.930 226.914 C 357.975 226.788,358.546 226.176,359.198 225.555 C 359.850 224.934,360.581 224.203,360.822 223.930 C 361.063 223.658,361.607 223.126,362.029 222.748 C 364.330 220.694,369.149 215.102,368.619 215.102 C 368.524 215.102,368.838 214.708,369.318 214.226 C 370.965 212.573,371.804 211.537,372.177 210.693 C 372.383 210.229,372.626 209.849,372.718 209.849 C 372.809 209.849,373.042 209.465,373.236 208.995 C 373.429 208.526,373.827 207.939,374.121 207.691 C 374.415 207.443,374.552 207.236,374.427 207.231 C 374.301 207.227,374.626 206.700,375.149 206.062 C 375.672 205.424,376.100 204.722,376.100 204.502 C 376.100 204.282,376.220 204.028,376.367 203.937 C 376.514 203.846,376.564 203.659,376.479 203.521 C 376.393 203.383,376.477 203.302,376.665 203.342 C 376.853 203.382,377.047 203.148,377.097 202.823 C 377.146 202.498,377.268 202.232,377.367 202.232 C 377.466 202.232,377.715 201.848,377.919 201.379 C 378.123 200.909,378.391 200.457,378.514 200.375 C 378.638 200.292,378.791 199.951,378.856 199.616 C 378.920 199.282,379.153 198.809,379.375 198.564 C 379.596 198.320,379.777 197.996,379.777 197.845 C 379.777 197.693,379.954 197.422,380.171 197.242 C 380.387 197.062,380.565 196.693,380.565 196.422 C 380.565 196.151,380.805 195.688,381.100 195.394 C 381.394 195.100,381.573 194.761,381.499 194.640 C 381.424 194.519,381.899 193.388,382.554 192.125 C 383.209 190.863,383.683 189.768,383.607 189.692 C 383.531 189.616,383.702 189.227,383.987 188.827 C 384.271 188.427,384.504 187.980,384.504 187.834 C 384.504 187.687,384.670 187.233,384.872 186.824 C 385.609 185.335,386.080 184.082,386.080 183.608 C 386.080 183.342,386.260 182.975,386.480 182.792 C 386.701 182.609,386.828 182.407,386.763 182.342 C 386.643 182.222,387.084 180.844,387.733 179.312 C 388.195 178.218,388.872 176.072,389.096 174.987 C 389.193 174.519,389.381 174.069,389.515 173.986 C 389.648 173.904,389.757 173.562,389.757 173.227 C 389.757 172.892,389.938 172.185,390.159 171.655 C 390.381 171.126,390.492 170.580,390.407 170.441 C 390.321 170.303,390.376 170.190,390.529 170.190 C 390.682 170.190,390.808 169.843,390.808 169.418 C 390.808 168.993,390.910 168.582,391.036 168.505 C 391.161 168.427,391.343 167.663,391.440 166.806 C 391.537 165.949,391.790 165.103,392.001 164.928 C 392.213 164.752,392.381 164.298,392.374 163.919 C 392.356 162.961,392.782 160.842,393.292 159.351 C 393.528 158.662,393.650 157.983,393.562 157.841 C 393.475 157.700,393.511 157.584,393.643 157.584 C 393.774 157.584,394.021 156.212,394.191 154.535 C 394.361 152.858,394.674 151.150,394.887 150.740 C 395.126 150.276,395.272 149.241,395.272 148.010 C 395.272 146.762,395.378 146.028,395.557 146.028 C 395.714 146.028,395.788 145.880,395.723 145.699 C 395.658 145.519,395.789 145.051,396.014 144.660 C 396.362 144.054,396.371 143.851,396.073 143.294 C 395.789 142.762,395.783 142.379,396.044 141.247 C 396.221 140.482,396.386 139.601,396.410 139.290 C 396.434 138.978,396.531 138.771,396.626 138.830 C 396.720 138.888,396.799 138.020,396.802 136.900 C 396.813 132.663,397.187 126.083,397.409 126.220 C 397.852 126.494,397.959 125.518,397.537 125.052 C 396.966 124.421,396.942 121.913,397.505 121.697 C 397.998 121.508,398.013 120.973,397.537 120.578 C 397.267 120.354,397.147 119.250,397.067 116.265 C 396.969 112.643,396.902 112.173,396.378 111.437 C 396.059 110.988,395.798 110.538,395.798 110.435 C 395.798 109.848,392.337 106.109,391.793 106.107 C 391.540 106.107,391.333 105.929,391.333 105.712 C 391.333 105.496,391.215 105.304,391.070 105.286 C 390.926 105.268,390.699 105.238,390.567 105.220 C 390.434 105.202,390.237 105.098,390.129 104.990 C 390.021 104.882,389.754 104.793,389.537 104.793 C 389.320 104.793,388.937 104.608,388.687 104.382 C 388.437 104.156,387.760 103.949,387.182 103.922 C 386.605 103.896,386.186 103.785,386.253 103.677 C 386.319 103.569,327.598 103.471,255.761 103.460 C 183.924 103.449,124.970 103.406,124.754 103.364 C 124.537 103.323,123.119 103.203,121.602 103.097 C 120.085 102.992,118.695 102.783,118.512 102.632 C 118.330 102.482,117.339 102.311,116.310 102.253 C 115.259 102.193,114.200 101.979,113.892 101.763 C 113.590 101.552,112.830 101.379,112.203 101.379 C 111.575 101.379,110.847 101.264,110.584 101.123 C 110.321 100.982,109.598 100.803,108.976 100.725 C 108.355 100.647,107.653 100.408,107.415 100.193 C 107.178 99.979,106.683 99.803,106.316 99.803 C 105.948 99.803,105.160 99.631,104.564 99.421 C 103.968 99.210,103.476 99.122,103.472 99.224 C 103.468 99.326,103.344 99.202,103.196 98.949 C 103.049 98.697,102.720 98.490,102.466 98.490 C 101.566 98.490,99.666 97.405,100.121 97.151 C 100.347 97.024,100.612 96.601,100.710 96.211 C 100.808 95.821,101.117 95.181,101.396 94.788 C 101.676 94.396,101.904 93.944,101.904 93.784 C 101.904 93.448,102.357 92.599,103.020 91.693 C 103.273 91.348,103.480 90.756,103.479 90.378 C 103.479 89.781,103.696 89.220,104.835 86.872 C 104.956 86.621,105.056 86.059,105.056 85.624 C 105.056 85.189,105.146 84.833,105.256 84.833 C 105.562 84.833,106.116 82.309,106.294 80.105 C 106.403 78.751,106.584 78.039,106.871 77.828 C 107.237 77.558,107.285 76.550,107.265 69.555 C 107.241 61.409,107.229 61.216,106.685 60.227 C 106.511 59.912,106.369 58.944,106.369 58.076 C 106.369 57.208,106.249 56.424,106.102 56.334 C 105.955 56.243,105.904 56.057,105.989 55.920 C 106.193 55.590,105.587 52.702,105.272 52.503 C 105.136 52.416,105.017 51.853,105.009 51.251 C 105.001 50.649,104.890 50.092,104.762 50.014 C 104.635 49.935,104.531 49.621,104.531 49.316 C 104.531 49.011,104.354 48.565,104.137 48.326 C 103.921 48.087,103.642 47.369,103.518 46.730 C 103.259 45.395,102.401 43.336,102.105 43.336 C 101.994 43.336,101.904 43.069,101.904 42.742 C 101.904 42.416,101.609 41.594,101.248 40.916 C 100.886 40.238,100.591 39.463,100.591 39.195 C 100.591 38.927,100.376 38.476,100.113 38.194 C 99.850 37.912,99.500 37.293,99.334 36.819 C 99.169 36.345,98.793 35.651,98.499 35.277 C 98.205 34.903,97.965 34.503,97.965 34.388 C 97.965 34.099,96.320 31.430,95.996 31.192 C 95.851 31.086,95.829 30.998,95.948 30.995 C 96.067 30.993,96.007 30.818,95.817 30.606 C 95.626 30.393,95.056 29.610,94.550 28.866 C 91.904 24.968,90.641 24.002,89.560 25.047 M131.753 59.577 C 131.341 59.817,130.632 60.527,130.177 61.155 L 129.350 62.297 129.350 78.883 C 129.350 95.197,129.359 95.483,129.892 96.313 C 130.522 97.291,131.699 98.286,131.941 98.043 C 132.033 97.952,132.108 98.022,132.108 98.199 C 132.108 98.376,132.226 98.448,132.370 98.359 C 132.515 98.269,132.633 98.321,132.633 98.474 C 132.633 98.851,169.301 98.866,169.534 98.490 C 169.623 98.345,169.903 98.227,170.157 98.227 C 170.643 98.227,171.637 97.261,172.375 96.070 C 172.777 95.421,172.817 93.850,172.817 78.709 L 172.817 62.061 171.963 61.168 C 171.494 60.677,171.135 60.201,171.165 60.110 C 171.537 58.989,133.642 58.475,131.753 59.577 M180.171 59.505 C 179.135 60.072,178.070 61.027,178.070 61.389 C 178.070 61.571,177.955 61.720,177.814 61.720 C 177.292 61.720,177.465 95.633,177.991 96.391 C 178.608 97.280,179.121 97.778,179.959 98.303 C 181.111 99.024,217.049 98.976,218.469 98.251 C 219.953 97.494,220.905 95.845,220.895 94.049 C 220.874 90.152,220.829 88.903,220.706 88.703 C 220.632 88.584,220.710 88.320,220.879 88.117 C 221.048 87.913,221.121 87.534,221.043 87.275 C 220.919 86.866,220.881 85.708,220.900 82.994 C 220.915 80.900,220.902 78.407,220.862 76.119 C 220.846 75.155,220.910 74.121,221.005 73.821 C 221.100 73.522,221.081 73.276,220.963 73.276 C 220.703 73.276,220.724 70.065,220.987 69.639 C 221.089 69.473,221.089 69.200,220.986 69.033 C 220.882 68.866,220.825 67.211,220.857 65.356 C 220.897 63.099,220.824 61.983,220.636 61.983 C 220.481 61.983,220.355 61.817,220.355 61.613 C 220.355 61.410,219.777 60.760,219.071 60.169 L 217.787 59.094 199.307 59.120 C 184.206 59.141,180.707 59.211,180.171 59.505 M227.916 59.501 C 226.870 60.069,225.870 61.064,225.870 61.538 C 225.870 61.766,225.750 62.026,225.603 62.117 C 225.456 62.208,225.404 62.392,225.487 62.526 C 225.570 62.661,225.513 62.771,225.360 62.771 C 224.907 62.771,224.977 94.933,225.432 95.388 C 225.624 95.580,225.863 96.032,225.963 96.391 C 226.063 96.751,226.626 97.428,227.214 97.895 L 228.282 98.746 246.610 98.745 C 263.115 98.745,265.026 98.702,265.824 98.311 C 266.783 97.842,267.795 97.125,267.797 96.914 C 267.798 96.842,268.002 96.251,268.250 95.601 C 268.661 94.522,268.694 93.001,268.625 78.135 C 268.545 60.918,268.526 60.670,267.342 60.670 C 267.050 60.670,266.881 60.556,266.967 60.417 C 267.781 59.100,230.276 58.220,227.916 59.501 M276.165 59.486 C 275.732 59.679,275.023 60.209,274.590 60.664 L 273.802 61.492 273.724 78.087 C 273.681 87.214,273.711 95.036,273.789 95.469 C 273.952 96.364,275.604 98.362,275.986 98.126 C 276.124 98.040,276.383 98.146,276.562 98.361 C 277.358 99.320,314.631 98.852,314.640 97.883 C 314.641 97.767,314.756 97.741,314.896 97.828 C 315.035 97.914,315.511 97.486,315.952 96.877 L 316.754 95.769 316.683 78.659 L 316.612 61.549 315.824 60.707 C 314.237 59.009,315.307 59.092,295.232 59.115 C 280.620 59.132,276.795 59.207,276.165 59.486 M323.601 59.566 C 323.112 59.812,322.723 60.097,322.738 60.200 C 322.752 60.303,322.414 60.737,321.986 61.165 L 321.208 61.943 321.208 78.781 C 321.208 93.839,321.253 95.688,321.632 96.267 C 321.866 96.623,321.975 96.914,321.875 96.914 C 321.775 96.914,322.044 97.209,322.473 97.571 C 322.903 97.932,323.437 98.227,323.660 98.227 C 323.883 98.227,324.137 98.342,324.224 98.483 C 324.528 98.975,361.156 98.836,361.864 98.340 C 362.814 97.674,363.756 96.657,363.756 96.296 C 363.756 96.113,363.929 95.734,364.141 95.454 C 364.720 94.688,364.720 63.158,364.141 62.392 C 363.929 62.112,363.756 61.715,363.756 61.510 C 363.756 60.957,362.695 59.914,361.688 59.478 C 360.243 58.852,324.860 58.934,323.601 59.566 M298.490 119.261 C 299.790 119.410,301.267 119.634,301.773 119.759 C 302.278 119.885,303.401 120.129,304.268 120.302 C 310.797 121.604,319.696 125.945,325.148 130.489 C 330.243 134.736,359.256 164.363,359.664 165.736 C 360.127 167.296,360.018 168.475,359.275 169.928 C 358.597 171.255,326.021 203.636,323.441 205.547 C 317.846 209.693,311.360 212.772,305.318 214.152 C 304.307 214.383,302.712 214.747,301.773 214.961 C 297.282 215.986,286.559 215.982,281.944 214.954 C 280.932 214.729,279.278 214.361,278.267 214.138 C 269.874 212.283,261.047 207.235,254.169 200.359 C 251.065 197.256,250.615 196.502,251.399 195.719 C 251.640 195.478,258.267 195.404,279.629 195.404 C 299.019 195.404,307.925 195.315,308.795 195.115 C 312.486 194.261,314.281 193.451,316.632 191.574 C 328.420 182.168,322.595 163.332,307.512 162.084 C 305.032 161.878,304.531 161.489,304.133 159.458 C 303.974 158.644,303.717 157.328,303.563 156.533 C 302.553 151.321,299.368 145.391,295.401 141.335 C 293.957 139.859,289.692 136.310,289.362 136.310 C 289.294 136.310,288.366 135.830,287.300 135.244 C 276.055 129.063,261.266 130.890,251.261 139.698 C 248.999 141.689,248.464 141.049,250.361 138.622 C 254.681 133.098,260.021 128.634,266.579 125.066 C 268.774 123.872,274.264 121.602,274.957 121.602 C 275.203 121.602,275.516 121.501,275.653 121.379 C 275.944 121.118,278.625 120.365,280.583 119.994 C 286.892 118.799,292.445 118.572,298.490 119.261 M185.321 160.599 C 185.781 161.228,185.870 188.004,185.414 188.855 C 184.989 189.650,181.680 189.601,181.113 188.791 L 180.712 188.219 179.242 188.962 C 170.137 193.569,163.139 180.475,170.438 172.489 C 172.373 170.372,173.812 169.805,177.210 169.818 L 179.896 169.829 179.968 165.224 L 180.039 160.619 180.696 160.273 C 181.709 159.738,184.854 159.960,185.321 160.599 M227.387 160.356 C 227.965 160.761,227.971 160.840,227.971 167.448 C 227.971 173.258,228.114 174.891,228.540 173.933 C 228.588 173.825,229.589 172.879,230.764 171.832 L 232.900 169.928 235.679 169.928 C 239.540 169.928,240.036 170.768,237.462 172.948 C 236.360 173.882,235.028 175.020,232.597 177.104 L 231.838 177.755 235.090 181.917 C 236.879 184.207,238.550 186.309,238.804 186.589 C 239.057 186.869,239.291 187.224,239.324 187.377 C 239.357 187.530,239.446 181.840,239.521 174.732 C 239.654 162.199,239.674 161.796,240.184 161.411 C 240.949 160.834,250.162 160.835,253.221 161.413 C 266.652 163.953,266.972 184.430,253.649 188.715 C 251.483 189.412,240.757 189.606,240.045 188.962 C 239.581 188.543,239.524 188.540,239.373 188.933 C 239.235 189.293,238.764 189.363,236.479 189.363 L 233.749 189.363 232.501 187.754 C 231.815 186.869,230.985 185.835,230.657 185.456 C 230.328 185.077,229.678 184.209,229.212 183.526 C 228.026 181.789,227.971 181.877,227.971 185.502 C 227.971 189.410,228.005 189.363,225.213 189.363 C 222.192 189.363,222.456 190.763,222.456 174.749 L 222.456 160.765 223.039 160.356 C 223.412 160.096,224.199 159.947,225.213 159.947 C 226.228 159.947,227.015 160.096,227.387 160.356 M300.882 164.872 C 301.109 165.171,301.234 166.136,301.239 167.630 L 301.248 169.928 303.296 169.928 C 305.822 169.928,305.975 170.065,305.975 172.329 C 305.975 174.585,305.596 174.918,303.028 174.918 L 301.248 174.918 301.248 179.811 L 301.248 184.704 302.364 184.550 C 302.978 184.466,303.971 184.318,304.570 184.222 C 305.913 184.008,306.185 184.390,306.411 186.810 C 306.591 188.733,306.526 188.818,304.345 189.491 C 301.427 190.391,297.915 189.508,296.588 187.540 C 295.631 186.120,295.472 185.025,295.471 179.842 L 295.469 174.918 294.678 174.918 C 293.470 174.918,290.308 175.868,289.426 176.496 L 288.641 177.055 288.641 182.894 C 288.641 189.762,288.819 189.363,285.752 189.363 C 282.620 189.363,282.863 190.179,282.863 179.645 C 282.863 169.275,282.702 169.928,285.249 169.928 L 287.005 169.928 287.451 170.868 C 287.849 171.707,287.944 171.768,288.335 171.436 C 289.695 170.283,291.119 169.832,293.303 169.865 L 295.469 169.898 295.469 168.588 C 295.469 166.043,299.612 163.198,300.882 164.872 M245.568 175.281 L 245.568 184.110 248.030 184.110 C 253.672 184.110,256.419 181.618,257.112 175.872 C 257.841 169.822,255.169 166.733,249.051 166.554 L 245.568 166.453 245.568 175.281 M198.107 169.671 C 207.878 171.084,208.292 187.591,198.608 189.600 C 191.796 191.013,187.347 187.472,187.051 180.401 C 186.800 174.394,189.545 170.401,194.405 169.705 C 195.315 169.574,196.120 169.455,196.192 169.440 C 196.264 169.425,197.126 169.529,198.107 169.671 M219.435 170.317 C 221.316 171.009,221.536 171.672,220.604 173.840 C 219.929 175.409,219.588 175.560,217.883 175.045 C 213.598 173.750,211.836 175.089,211.825 179.645 C 211.814 184.173,214.592 185.976,218.543 184.005 C 220.004 183.276,220.692 183.706,221.024 185.555 C 221.127 186.133,221.314 186.804,221.439 187.046 C 222.441 188.990,215.351 190.662,211.776 189.325 C 204.355 186.548,203.791 174.080,210.921 170.442 C 213.096 169.332,216.621 169.281,219.435 170.317 M277.075 170.226 C 280.242 171.603,280.499 172.435,280.499 181.322 C 280.499 185.288,280.427 188.719,280.340 188.948 C 280.040 189.730,276.726 189.525,276.179 188.690 L 275.738 188.018 274.770 188.595 C 269.575 191.694,263.661 188.694,264.302 183.286 C 264.740 179.592,267.666 177.394,272.817 176.889 C 274.679 176.707,274.721 176.687,274.721 175.974 C 274.721 174.402,271.969 174.174,269.304 175.525 C 267.565 176.406,267.087 176.246,266.231 174.499 C 265.342 172.687,265.349 172.193,266.272 171.535 C 269.029 169.572,274.144 168.952,277.075 170.226 M194.666 174.925 C 192.163 176.451,192.226 183.439,194.753 184.590 C 197.623 185.898,199.654 183.795,199.654 179.514 C 199.654 175.124,197.536 173.175,194.666 174.925 M176.633 174.844 C 174.567 175.162,173.259 177.176,173.258 180.039 C 173.256 184.040,175.854 185.785,178.956 183.868 L 179.908 183.280 179.908 179.099 L 179.908 174.918 179.186 174.914 C 178.789 174.912,178.227 174.869,177.938 174.817 C 177.649 174.766,177.062 174.778,176.633 174.844 M272.547 181.857 C 270.045 182.530,269.087 184.431,271.175 184.579 C 272.914 184.702,274.569 183.703,274.671 182.469 C 274.765 181.341,274.621 181.299,272.547 181.857 " stroke="none" fill="#fbfbfb" fill-rule="evenodd"></path><path id="path2" d="M286.014 119.619 C 284.209 119.784,282.554 119.995,282.337 120.088 C 282.121 120.182,281.234 120.386,280.368 120.543 C 278.646 120.854,276.986 121.278,276.165 121.616 C 275.877 121.734,275.345 121.912,274.984 122.011 C 267.109 124.157,257.735 130.469,251.682 137.700 C 249.687 140.084,249.678 140.591,251.664 138.804 C 262.739 128.841,280.679 128.595,292.712 138.241 C 299.144 143.397,304.629 153.434,304.659 160.104 C 304.664 161.054,305.443 161.443,307.682 161.612 C 309.705 161.764,310.670 161.994,312.449 162.748 C 312.905 162.941,313.339 163.099,313.415 163.099 C 313.492 163.099,314.250 163.514,315.101 164.021 C 326.218 170.643,325.937 187.253,314.600 193.540 C 313.540 194.128,312.406 194.611,312.081 194.612 C 311.756 194.614,311.490 194.721,311.490 194.850 C 311.490 195.403,308.037 195.491,280.630 195.640 L 251.740 195.798 251.670 196.454 C 251.536 197.698,257.207 203.076,262.246 206.485 C 273.035 213.783,285.660 216.633,299.278 214.844 C 302.602 214.407,304.785 214.020,305.318 213.775 C 305.607 213.641,306.494 213.367,307.288 213.164 C 309.318 212.645,314.575 210.533,316.349 209.523 C 316.638 209.359,317.288 209.006,317.794 208.739 C 319.490 207.843,321.515 206.495,323.668 204.829 C 326.187 202.880,357.722 171.588,358.699 170.069 C 359.535 168.769,359.652 165.996,358.919 164.878 C 358.490 164.222,328.944 134.553,326.286 132.108 C 324.257 130.242,318.899 126.330,318.373 126.330 C 318.238 126.330,317.845 126.118,317.501 125.860 C 317.156 125.601,315.870 124.942,314.642 124.395 C 313.414 123.849,312.220 123.302,311.989 123.180 C 311.547 122.948,307.641 121.644,305.844 121.129 C 305.266 120.963,304.084 120.700,303.217 120.545 C 302.351 120.389,301.405 120.160,301.116 120.037 C 299.551 119.367,291.292 119.139,286.014 119.619 " stroke="none" fill="#f47c24" fill-rule="evenodd"></path><path id="path3" d="M288.116 119.010 C 283.301 119.334,276.490 120.628,275.653 121.379 C 275.516 121.501,275.203 121.602,274.957 121.602 C 274.264 121.602,268.774 123.872,266.579 125.066 C 260.021 128.634,254.681 133.098,250.361 138.622 C 248.464 141.049,248.999 141.689,251.261 139.698 C 261.266 130.890,276.055 129.063,287.300 135.244 C 288.366 135.830,289.294 136.310,289.362 136.310 C 289.692 136.310,293.957 139.859,295.401 141.335 C 299.368 145.391,302.553 151.321,303.563 156.533 C 303.717 157.328,303.974 158.644,304.133 159.458 C 304.531 161.489,305.032 161.878,307.512 162.084 C 322.595 163.332,328.420 182.168,316.632 191.574 C 314.281 193.451,312.486 194.261,308.795 195.115 C 307.925 195.315,299.019 195.404,279.629 195.404 C 258.267 195.404,251.640 195.478,251.399 195.719 C 250.615 196.502,251.065 197.256,254.169 200.359 C 261.047 207.235,269.874 212.283,278.267 214.138 C 279.278 214.361,280.932 214.729,281.944 214.954 C 286.559 215.982,297.282 215.986,301.773 214.961 C 302.712 214.747,304.307 214.383,305.318 214.152 C 311.360 212.772,317.846 209.693,323.441 205.547 C 326.021 203.636,358.597 171.255,359.275 169.928 C 360.018 168.475,360.127 167.296,359.664 165.736 C 359.256 164.363,330.243 134.736,325.148 130.489 C 319.696 125.945,310.797 121.604,304.268 120.302 C 303.401 120.129,302.278 119.885,301.773 119.759 C 298.956 119.059,292.582 118.709,288.116 119.010 M296.651 119.523 C 298.818 119.682,300.827 119.913,301.116 120.037 C 301.405 120.160,302.351 120.389,303.217 120.545 C 304.084 120.700,305.266 120.963,305.844 121.129 C 307.641 121.644,311.547 122.948,311.989 123.180 C 312.220 123.302,313.414 123.849,314.642 124.395 C 315.870 124.942,317.156 125.601,317.501 125.860 C 317.845 126.118,318.238 126.330,318.373 126.330 C 318.899 126.330,324.257 130.242,326.286 132.108 C 328.944 134.553,358.490 164.222,358.919 164.878 C 359.652 165.996,359.535 168.769,358.699 170.069 C 357.722 171.588,326.187 202.880,323.668 204.829 C 321.515 206.495,319.490 207.843,317.794 208.739 C 317.288 209.006,316.638 209.359,316.349 209.523 C 314.575 210.533,309.318 212.645,307.288 213.164 C 306.494 213.367,305.607 213.641,305.318 213.775 C 304.785 214.020,302.602 214.407,299.278 214.844 C 285.660 216.633,273.035 213.783,262.246 206.485 C 257.207 203.076,251.536 197.698,251.670 196.454 L 251.740 195.798 280.630 195.640 C 308.037 195.491,311.490 195.403,311.490 194.850 C 311.490 194.721,311.756 194.614,312.081 194.612 C 312.406 194.611,313.540 194.128,314.600 193.540 C 325.937 187.253,326.218 170.643,315.101 164.021 C 314.250 163.514,313.492 163.099,313.415 163.099 C 313.339 163.099,312.905 162.941,312.449 162.748 C 310.670 161.994,309.705 161.764,307.682 161.612 C 305.443 161.443,304.664 161.054,304.659 160.104 C 304.629 153.434,299.144 143.397,292.712 138.241 C 280.679 128.595,262.739 128.841,251.664 138.804 C 249.678 140.591,249.687 140.084,251.682 137.700 C 257.735 130.469,267.109 124.157,274.984 122.011 C 275.345 121.912,275.877 121.734,276.165 121.616 C 276.986 121.278,278.646 120.854,280.368 120.543 C 281.234 120.386,282.121 120.182,282.337 120.088 C 283.785 119.465,291.638 119.154,296.651 119.523 " stroke="none" fill="#f49c56" fill-rule="evenodd"></path><path id="path4" d="M38.674 68.219 C 39.793 68.268,41.625 68.268,42.745 68.219 C 43.864 68.170,42.948 68.129,40.709 68.129 C 38.470 68.129,37.554 68.170,38.674 68.219 M107.228 69.074 C 107.228 69.724,107.280 69.990,107.342 69.665 C 107.405 69.340,107.405 68.808,107.342 68.483 C 107.280 68.158,107.228 68.424,107.228 69.074 M56.139 120.212 C 56.464 120.274,56.996 120.274,57.321 120.212 C 57.646 120.149,57.380 120.098,56.730 120.098 C 56.080 120.098,55.814 120.149,56.139 120.212 M180.696 160.273 L 180.039 160.619 179.968 165.224 L 179.896 169.829 177.210 169.818 C 173.946 169.805,172.455 170.359,170.690 172.241 C 169.540 173.466,169.540 173.468,170.584 172.529 C 172.925 170.426,175.420 169.640,178.289 170.102 C 180.339 170.432,180.171 170.826,180.171 165.703 C 180.171 160.080,179.971 160.473,182.827 160.473 L 185.165 160.473 185.097 174.721 L 185.030 188.969 183.454 189.050 C 182.029 189.123,181.827 189.066,181.341 188.456 C 180.848 187.837,180.761 187.815,180.290 188.179 C 179.838 188.529,179.833 188.557,180.253 188.410 C 180.571 188.299,180.860 188.429,181.122 188.803 C 181.681 189.601,184.994 189.641,185.414 188.855 C 185.870 188.004,185.781 161.228,185.321 160.599 C 184.854 159.960,181.709 159.738,180.696 160.273 M223.039 160.356 L 222.456 160.765 222.456 174.749 C 222.456 190.763,222.192 189.363,225.213 189.363 C 228.005 189.363,227.971 189.410,227.971 185.502 C 227.971 183.404,228.069 182.272,228.249 182.272 C 228.402 182.272,228.454 182.154,228.365 182.009 C 227.896 181.250,227.716 182.089,227.650 185.358 L 227.577 188.969 225.213 188.969 L 222.850 188.969 222.850 174.787 L 222.850 160.604 225.213 160.604 L 227.577 160.604 227.647 167.498 C 227.694 172.104,227.809 174.393,227.994 174.393 C 228.146 174.393,229.325 173.447,230.613 172.292 L 232.957 170.190 235.717 170.190 L 238.477 170.190 238.483 170.913 C 238.488 171.473,238.062 172.039,236.579 173.438 C 235.528 174.430,235.141 174.858,235.719 174.388 C 237.500 172.942,239.002 171.488,239.002 171.209 C 239.002 170.113,238.522 169.928,235.679 169.928 L 232.900 169.928 230.764 171.832 C 229.589 172.879,228.588 173.825,228.540 173.933 C 228.114 174.891,227.971 173.258,227.971 167.448 C 227.971 159.661,228.077 159.947,225.213 159.947 C 224.199 159.947,223.412 160.096,223.039 160.356 M240.488 161.195 C 240.422 161.303,243.281 161.394,246.842 161.397 C 250.402 161.400,252.843 161.318,252.265 161.215 C 250.853 160.964,240.641 160.946,240.488 161.195 M239.728 162.049 C 239.621 162.410,239.533 168.316,239.531 175.173 C 239.527 186.966,239.503 187.606,239.083 186.992 C 238.838 186.635,238.569 186.284,238.484 186.211 C 238.400 186.139,236.928 184.278,235.213 182.075 C 233.498 179.872,232.047 178.070,231.988 178.070 C 231.788 178.070,232.261 178.709,235.612 182.962 C 240.508 189.177,240.498 189.098,236.409 189.105 L 233.880 189.109 232.861 187.988 L 231.842 186.868 232.763 188.050 L 233.684 189.232 236.393 189.307 C 238.662 189.370,239.140 189.314,239.338 188.960 C 239.555 188.573,239.617 188.575,240.063 188.979 C 240.636 189.497,251.691 189.432,252.922 188.904 C 253.440 188.681,253.246 188.658,252.003 188.795 C 251.136 188.891,248.122 188.969,245.305 188.969 L 240.184 188.969 240.053 175.181 C 239.980 167.597,239.834 161.687,239.728 162.049 M254.892 162.016 C 256.818 162.733,258.149 163.558,259.554 164.904 C 260.240 165.562,260.801 166.010,260.801 165.900 C 260.801 165.000,256.309 161.996,254.498 161.684 C 253.754 161.556,253.829 161.620,254.892 162.016 M296.980 165.847 C 295.519 167.231,295.469 167.323,295.469 168.641 L 295.469 170.003 293.959 169.846 C 292.355 169.679,290.609 169.954,290.119 170.449 C 289.913 170.658,290.062 170.651,290.611 170.428 C 291.044 170.251,292.344 170.096,293.500 170.083 L 295.601 170.059 295.742 168.654 C 295.937 166.711,298.018 164.594,299.603 164.725 L 300.591 164.806 300.722 167.170 C 300.892 170.230,300.858 170.190,303.336 170.190 C 305.669 170.190,305.712 170.228,305.712 172.292 C 305.712 174.350,305.665 174.393,303.373 174.393 C 300.637 174.393,300.717 174.244,300.748 179.238 C 300.785 185.153,301.090 185.647,304.005 184.510 C 304.583 184.284,304.760 184.164,304.399 184.243 C 304.038 184.322,303.181 184.459,302.495 184.548 L 301.248 184.709 301.248 179.813 L 301.248 174.918 303.028 174.918 C 305.596 174.918,305.975 174.585,305.975 172.329 C 305.975 170.065,305.822 169.928,303.296 169.928 L 301.248 169.928 301.239 167.630 C 301.225 163.822,299.762 163.210,296.980 165.847 M245.218 166.426 C 244.834 166.809,245.021 183.765,245.412 184.090 C 245.646 184.284,246.531 184.363,247.841 184.306 L 249.902 184.216 247.735 184.163 L 245.568 184.110 245.568 175.281 L 245.568 166.453 249.126 166.557 C 251.083 166.614,252.472 166.577,252.212 166.474 C 251.608 166.236,245.450 166.193,245.218 166.426 M261.676 167.915 C 262.134 168.846,262.546 169.572,262.592 169.530 C 262.744 169.392,261.539 166.799,261.188 166.508 C 260.999 166.351,261.219 166.984,261.676 167.915 M253.710 167.365 C 254.215 167.684,254.785 168.095,254.976 168.280 C 255.339 168.630,255.548 168.705,255.548 168.485 C 255.548 168.267,253.388 166.776,253.079 166.781 C 252.921 166.783,253.204 167.046,253.710 167.365 M256.209 170.113 C 256.565 170.806,256.972 172.022,257.113 172.817 L 257.369 174.261 257.242 172.732 C 257.122 171.284,256.389 169.366,255.821 169.015 C 255.678 168.927,255.853 169.421,256.209 170.113 M272.948 169.584 C 273.201 169.650,273.615 169.650,273.867 169.584 C 274.120 169.517,273.913 169.463,273.408 169.463 C 272.902 169.463,272.695 169.517,272.948 169.584 M193.081 169.926 C 192.599 170.041,192.079 170.259,191.927 170.411 C 191.764 170.573,192.127 170.544,192.809 170.339 C 193.446 170.147,194.202 169.931,194.488 169.858 C 195.005 169.727,195.005 169.726,194.485 169.722 C 194.196 169.721,193.564 169.812,193.081 169.926 M199.484 170.176 C 201.581 170.869,203.075 172.187,204.056 174.209 C 204.490 175.104,204.848 175.658,204.852 175.439 C 204.885 173.461,201.458 170.199,198.937 169.812 C 198.122 169.687,198.240 169.765,199.484 170.176 M211.097 170.365 C 210.266 170.744,209.586 171.151,209.586 171.270 C 209.586 171.389,210.003 171.240,210.512 170.940 C 211.020 170.640,211.936 170.238,212.547 170.047 C 213.158 169.856,213.421 169.695,213.132 169.688 C 212.843 169.681,211.927 169.985,211.097 170.365 M217.597 170.035 C 218.464 170.239,219.409 170.477,219.698 170.564 C 219.987 170.652,219.810 170.529,219.304 170.292 C 218.798 170.054,217.853 169.816,217.203 169.762 C 216.113 169.673,216.143 169.694,217.597 170.035 M269.375 170.093 C 268.673 170.309,268.152 170.538,268.217 170.602 C 268.281 170.667,269.033 170.494,269.886 170.219 C 270.740 169.943,271.261 169.714,271.044 169.710 C 270.827 169.705,270.076 169.878,269.375 170.093 M276.453 170.207 C 277.699 170.687,278.615 171.409,279.596 172.685 C 279.963 173.164,279.965 173.140,279.619 172.422 C 279.013 171.164,276.755 169.660,275.509 169.685 C 275.292 169.689,275.717 169.924,276.453 170.207 M262.856 170.978 C 263.084 172.496,263.084 175.953,262.856 177.807 C 262.716 178.945,262.737 179.112,262.956 178.595 C 263.438 177.457,263.515 172.321,263.070 170.978 L 262.678 169.796 262.856 170.978 M283.178 170.243 C 282.945 170.476,282.863 172.928,282.863 179.645 C 282.863 190.179,282.620 189.363,285.752 189.363 C 288.819 189.363,288.641 189.761,288.641 182.898 L 288.641 177.063 289.363 176.496 C 289.760 176.185,289.908 176.015,289.691 176.120 C 288.377 176.757,288.378 176.750,288.378 182.685 C 288.378 189.643,288.600 189.100,285.752 189.100 C 282.864 189.100,283.125 190.041,283.125 179.645 C 283.125 169.444,282.967 170.190,285.137 170.190 C 286.823 170.190,286.831 170.194,287.213 171.110 C 287.671 172.205,287.589 172.192,288.797 171.372 C 289.329 171.011,289.646 170.716,289.501 170.716 C 289.356 170.716,288.933 170.955,288.560 171.248 L 287.884 171.780 287.445 170.854 C 286.971 169.857,283.991 169.430,283.178 170.243 M190.063 171.680 C 189.038 172.674,187.625 174.843,187.852 175.071 C 187.923 175.141,188.190 174.760,188.444 174.223 C 188.699 173.687,189.477 172.678,190.173 171.982 C 190.870 171.285,191.353 170.716,191.247 170.716 C 191.141 170.716,190.608 171.149,190.063 171.680 M266.958 171.101 C 266.677 171.313,266.573 171.491,266.726 171.495 C 266.879 171.500,267.233 171.330,267.514 171.118 C 267.794 170.906,267.898 170.729,267.746 170.724 C 267.593 170.719,267.238 170.889,266.958 171.101 M208.480 172.226 C 207.704 173.052,206.695 174.660,206.709 175.049 C 206.714 175.194,206.906 174.957,207.136 174.524 C 207.365 174.091,207.959 173.234,208.456 172.620 C 209.481 171.353,209.493 171.148,208.480 172.226 M265.844 171.819 C 265.670 171.992,265.534 172.376,265.541 172.672 C 265.553 173.183,267.066 176.327,267.092 175.894 C 267.099 175.781,266.809 175.105,266.448 174.393 C 265.721 172.959,265.633 172.292,266.106 171.819 C 266.280 171.645,266.362 171.504,266.290 171.504 C 266.218 171.504,266.017 171.645,265.844 171.819 M220.405 173.602 C 220.065 174.420,219.625 175.018,219.251 175.168 C 218.919 175.301,218.825 175.416,219.041 175.423 C 219.785 175.446,221.525 172.850,221.071 172.395 C 221.007 172.331,220.708 172.875,220.405 173.602 M280.105 181.180 L 280.105 188.969 278.225 188.969 C 277.192 188.969,276.401 189.058,276.468 189.166 C 276.726 189.582,280.171 189.387,280.340 188.948 C 280.568 188.352,280.529 174.059,280.298 173.695 C 280.192 173.528,280.105 176.896,280.105 181.180 M169.205 173.933 C 168.745 174.510,168.055 175.996,168.139 176.229 C 168.184 176.353,168.535 175.813,168.920 175.029 C 169.620 173.601,169.693 173.321,169.205 173.933 M194.231 174.945 C 193.720 175.393,193.303 175.893,193.303 176.054 C 193.303 176.216,193.487 176.085,193.713 175.763 C 195.055 173.846,198.033 173.977,199.111 176.000 C 199.371 176.488,199.589 176.770,199.594 176.625 C 199.676 174.471,196.061 173.339,194.231 174.945 M176.362 174.636 C 176.034 174.764,176.576 174.844,177.807 174.848 C 179.063 174.853,179.586 174.778,179.251 174.642 C 178.583 174.372,177.044 174.368,176.362 174.636 M212.932 175.115 C 210.893 177.244,210.860 182.022,212.870 184.032 C 213.862 185.024,216.310 185.248,217.859 184.488 C 218.293 184.276,218.411 184.174,218.122 184.262 C 213.856 185.559,211.814 184.062,211.825 179.645 C 211.836 175.138,213.824 173.679,218.122 175.024 C 218.411 175.115,218.293 175.015,217.859 174.802 C 216.421 174.098,213.744 174.267,212.932 175.115 M270.810 174.632 C 270.590 174.772,271.136 174.808,272.185 174.724 C 274.180 174.564,274.721 174.836,274.721 176.001 C 274.721 176.691,274.636 176.760,273.736 176.798 L 272.751 176.840 273.622 176.948 C 275.172 177.138,275.615 176.102,274.518 174.852 C 274.077 174.351,271.496 174.197,270.810 174.632 M293.894 174.649 C 293.596 174.846,293.736 174.911,294.466 174.914 L 295.431 174.918 295.516 180.368 C 295.595 185.430,295.643 185.896,296.193 186.925 C 296.732 187.934,298.376 189.363,298.997 189.363 C 299.137 189.363,298.766 189.048,298.173 188.664 C 296.091 187.314,295.889 186.609,295.735 180.171 L 295.601 174.524 294.944 174.456 C 294.583 174.419,294.110 174.505,293.894 174.649 M257.044 176.165 C 256.642 180.124,254.935 182.511,251.638 183.724 C 251.093 183.925,250.899 184.081,251.183 184.092 C 252.767 184.151,255.821 181.415,256.702 179.147 C 257.133 178.039,257.605 174.655,257.330 174.655 C 257.257 174.655,257.128 175.335,257.044 176.165 M174.736 175.594 L 173.999 176.269 174.852 175.676 C 175.322 175.349,175.706 175.045,175.706 175.000 C 175.706 174.793,175.415 174.970,174.736 175.594 M179.967 179.033 L 179.908 183.280 178.967 183.861 C 176.924 185.124,174.956 184.784,173.856 182.980 C 173.574 182.518,173.344 182.259,173.345 182.403 C 173.346 182.794,174.232 184.064,174.808 184.500 C 175.871 185.304,178.861 184.715,179.867 183.503 C 180.094 183.230,180.162 181.929,180.105 178.954 L 180.025 174.787 179.967 179.033 M269.140 175.331 C 268.122 175.883,268.237 176.074,269.271 175.548 C 270.261 175.044,270.436 174.914,270.103 174.928 C 269.970 174.934,269.537 175.115,269.140 175.331 M233.653 175.873 C 233.239 176.229,232.944 176.564,232.997 176.616 C 233.049 176.669,233.431 176.420,233.845 176.064 C 234.259 175.708,234.555 175.373,234.502 175.321 C 234.449 175.268,234.067 175.517,233.653 175.873 M290.808 175.451 C 289.882 175.824,290.115 175.953,291.202 175.669 C 292.653 175.291,292.782 175.222,292.055 175.218 C 291.694 175.216,291.133 175.321,290.808 175.451 M187.264 176.618 C 186.858 178.067,187.019 182.965,187.497 183.724 C 187.799 184.203,187.811 184.193,187.661 183.585 C 187.309 182.169,187.218 178.648,187.495 177.172 C 187.848 175.287,187.721 174.985,187.264 176.618 M206.250 176.134 C 205.906 177.372,206.014 182.857,206.394 183.454 C 206.698 183.930,206.714 183.906,206.568 183.191 C 206.201 181.400,206.119 178.031,206.414 176.862 C 206.745 175.546,206.597 174.889,206.250 176.134 M204.962 176.625 C 205.903 182.486,204.304 186.880,200.575 188.685 C 199.825 189.047,199.396 189.348,199.620 189.354 C 200.103 189.365,202.467 187.908,202.959 187.295 C 205.247 184.449,206.467 178.413,205.169 176.362 C 204.865 175.882,204.847 175.905,204.962 176.625 M192.798 177.454 C 192.464 178.656,192.457 181.401,192.785 182.141 C 192.935 182.480,192.969 182.062,192.880 180.959 C 192.805 180.020,192.859 178.661,193.001 177.938 C 193.313 176.353,193.187 176.053,192.798 177.454 M167.827 176.808 C 167.827 176.885,167.703 177.584,167.552 178.362 C 167.389 179.201,167.361 180.418,167.483 181.353 C 167.681 182.872,167.694 182.821,167.836 179.908 C 167.916 178.247,167.947 176.838,167.905 176.778 C 167.862 176.718,167.827 176.732,167.827 176.808 M270.030 177.320 C 268.617 177.727,269.211 177.811,270.788 177.427 C 271.579 177.235,271.930 177.075,271.569 177.072 C 271.208 177.069,270.516 177.181,270.030 177.320 M199.698 179.645 C 199.696 182.029,199.708 182.079,199.951 180.761 C 200.115 179.873,200.115 178.983,199.952 178.266 C 199.729 177.282,199.699 177.446,199.698 179.645 M268.143 178.022 C 266.484 178.752,263.997 181.616,264.546 182.165 C 264.617 182.236,264.855 181.846,265.076 181.298 C 265.546 180.131,266.265 179.413,267.892 178.486 C 268.973 177.871,269.124 177.591,268.143 178.022 M172.932 179.244 C 172.838 179.746,172.871 180.602,173.005 181.148 C 173.223 182.035,173.249 181.937,173.241 180.236 C 173.232 178.098,173.179 177.929,172.932 179.244 M262.171 180.342 C 262.009 180.870,261.980 181.195,262.108 181.065 C 262.365 180.802,262.764 179.383,262.581 179.383 C 262.517 179.383,262.332 179.815,262.171 180.342 M274.412 181.426 C 275.781 182.388,273.562 184.636,271.243 184.636 C 270.447 184.636,270.190 184.513,270.002 184.045 C 269.856 183.682,269.758 183.611,269.747 183.861 C 269.674 185.662,274.417 184.850,275.105 182.944 C 275.380 182.181,275.091 181.458,274.440 181.283 C 274.138 181.201,274.132 181.229,274.412 181.426 M261.202 182.426 C 260.430 184.052,257.564 186.683,255.461 187.696 C 254.426 188.195,253.884 188.541,254.257 188.464 C 256.625 187.977,262.652 182.459,261.774 181.581 C 261.710 181.517,261.452 181.898,261.202 182.426 M271.832 181.673 C 271.116 181.942,269.993 182.828,269.993 183.123 C 269.993 183.283,270.286 183.140,270.642 182.804 C 270.999 182.469,271.856 182.043,272.547 181.857 C 273.548 181.588,273.642 181.520,273.014 181.522 C 272.580 181.524,272.049 181.592,271.832 181.673 M199.076 183.072 C 198.657 184.082,197.767 184.687,196.355 184.918 L 195.272 185.095 196.192 185.127 C 197.624 185.177,200.205 183.045,199.529 182.370 C 199.466 182.307,199.262 182.622,199.076 183.072 M229.073 183.388 C 229.424 183.858,229.940 184.563,230.220 184.956 C 230.500 185.348,230.824 185.673,230.941 185.678 C 231.058 185.682,230.608 184.977,229.941 184.110 C 229.274 183.244,228.662 182.534,228.581 182.534 C 228.500 182.534,228.721 182.919,229.073 183.388 M264.294 184.110 C 264.294 184.905,264.343 185.230,264.403 184.833 C 264.464 184.435,264.464 183.785,264.403 183.388 C 264.343 182.991,264.294 183.316,264.294 184.110 M193.309 183.474 C 193.300 183.876,194.447 184.900,194.895 184.890 C 195.138 184.885,195.086 184.780,194.747 184.593 C 194.458 184.435,194.018 184.054,193.768 183.748 C 193.519 183.442,193.312 183.318,193.309 183.474 M218.893 183.876 C 218.773 184.069,218.891 184.110,219.243 183.998 C 219.849 183.806,220.615 184.427,220.621 185.114 C 220.623 185.356,220.749 185.732,220.900 185.949 C 221.102 186.239,221.128 186.100,220.998 185.424 C 220.711 183.930,219.438 182.994,218.893 183.876 M168.239 184.636 C 168.334 184.997,168.516 185.404,168.644 185.542 C 169.019 185.943,168.904 185.367,168.463 184.636 L 168.067 183.979 168.239 184.636 M206.883 184.570 C 207.675 186.715,211.853 190.336,212.635 189.554 C 212.698 189.490,212.186 189.203,211.497 188.916 C 209.783 188.202,208.641 187.178,207.702 185.514 C 206.907 184.105,206.567 183.713,206.883 184.570 M305.513 184.570 C 305.737 184.823,305.978 185.266,306.049 185.555 C 306.159 186.008,306.181 186.015,306.207 185.603 C 306.247 184.983,305.775 184.110,305.400 184.110 C 305.226 184.110,305.272 184.298,305.513 184.570 M187.790 184.481 C 187.773 186.070,190.802 188.946,193.040 189.468 C 193.596 189.597,193.576 189.562,192.909 189.241 C 192.475 189.032,191.994 188.856,191.840 188.850 C 191.257 188.825,189.309 186.885,188.565 185.589 C 188.140 184.848,187.791 184.349,187.790 184.481 M264.605 186.211 C 264.711 186.573,264.974 187.045,265.191 187.262 C 265.496 187.566,265.481 187.446,265.130 186.737 C 264.549 185.565,264.361 185.377,264.605 186.211 M169.101 186.365 C 169.473 187.109,171.379 188.803,172.191 189.112 C 173.321 189.542,173.259 189.384,172.029 188.698 C 171.379 188.336,170.393 187.540,169.837 186.929 C 169.282 186.317,168.951 186.064,169.101 186.365 M306.284 187.292 C 306.241 188.425,306.174 188.532,305.253 188.930 C 304.367 189.314,304.347 189.342,305.056 189.211 C 306.242 188.992,306.549 188.552,306.432 187.236 L 306.329 186.080 306.284 187.292 M221.201 187.156 C 221.241 187.459,221.112 187.902,220.913 188.141 C 220.692 188.408,220.663 188.575,220.838 188.575 C 221.343 188.575,221.722 187.570,221.409 187.062 C 221.157 186.652,221.135 186.662,221.201 187.156 M265.529 187.861 C 265.529 188.086,267.640 189.440,267.777 189.303 C 267.853 189.228,267.466 188.887,266.919 188.546 C 265.724 187.804,265.529 187.707,265.529 187.861 M275.099 188.196 C 274.603 188.594,274.604 188.597,275.140 188.339 C 275.531 188.151,275.783 188.166,276.009 188.390 C 276.258 188.637,276.290 188.606,276.153 188.247 C 275.938 187.682,275.752 187.673,275.099 188.196 M178.464 189.086 C 177.886 189.360,177.505 189.593,177.618 189.604 C 177.927 189.636,179.645 188.886,179.645 188.720 C 179.645 188.525,179.658 188.521,178.464 189.086 M218.910 188.962 C 218.332 189.152,218.096 189.315,218.385 189.324 C 218.674 189.332,219.265 189.177,219.698 188.979 C 220.699 188.520,220.277 188.511,218.910 188.962 M273.539 188.960 C 273.106 189.158,272.935 189.330,273.161 189.342 C 273.386 189.354,273.799 189.190,274.080 188.977 C 274.713 188.499,274.557 188.493,273.539 188.960 M268.549 189.636 C 269.057 189.844,271.769 189.986,271.547 189.793 C 271.487 189.740,270.670 189.635,269.731 189.558 C 268.728 189.477,268.240 189.509,268.549 189.636 M301.904 189.626 L 300.066 189.796 301.773 189.838 C 302.712 189.861,303.657 189.766,303.874 189.626 C 304.091 189.486,304.150 189.390,304.005 189.413 C 303.861 189.437,302.915 189.532,301.904 189.626 M175.120 189.816 C 175.592 189.875,176.301 189.873,176.695 189.813 C 177.090 189.753,176.704 189.706,175.837 189.707 C 174.970 189.709,174.648 189.758,175.120 189.816 M194.820 189.818 C 195.438 189.874,196.383 189.873,196.921 189.817 C 197.459 189.760,196.953 189.715,195.798 189.716 C 194.642 189.717,194.202 189.763,194.820 189.818 M213.728 189.816 C 214.200 189.875,214.909 189.873,215.303 189.813 C 215.698 189.753,215.312 189.706,214.445 189.707 C 213.578 189.709,213.256 189.758,213.728 189.816 M285.292 252.578 C 285.545 252.644,285.959 252.644,286.211 252.578 C 286.464 252.512,286.257 252.458,285.752 252.458 C 285.246 252.458,285.039 252.512,285.292 252.578 " stroke="none" fill="#9b9cc2" fill-rule="evenodd"></path></g></svg>