<svg xmlns="http://www.w3.org/2000/svg" viewBox="0 0 339.45 296.58"><defs><style>.cls-1{fill:#f47f24;}</style></defs><title>cloud dartAsset 8icon</title><g id="Layer_2" data-name="Layer 2"><g id="Layer_1-2" data-name="Layer 1"><path class="cls-1" d="M334.56,160.11l-80,80L243.4,251.26a148.82,148.82,0,0,1-37.22,27.31l-1.69.86a164.68,164.68,0,0,1-73.61,17.15c-50.34,0-95.16-22.24-124-56.85a3.44,3.44,0,0,1,2.63-5.64H175.2a51.32,51.32,0,1,0,0-102.63h0a6.17,6.17,0,0,1-6.12-5.54A97.56,97.56,0,0,0,141.6,67.67L141,67A97.81,97.81,0,0,0,2.53,67l-.15.16a1.37,1.37,0,0,1-2.1-1.76C28.58,25.94,76.51,0,130.88,0a164.52,164.52,0,0,1,73.61,17.16l1.69.85a149.16,149.16,0,0,1,37.21,27.3l11.2,11.2,26.07,26.07,53.9,53.9A16.72,16.72,0,0,1,334.56,160.11Z"/></g></g></svg>